<?xml version="1.0" encoding="UTF-8" standalone="no"?>
<!DOCTYPE svg PUBLIC "-//W3C//DTD SVG 1.1//EN" "http://www.w3.org/Graphics/SVG/1.1/DTD/svg11.dtd">
<svg width="100%" height="100%" viewBox="0 0 1600 1600" version="1.1" xmlns="http://www.w3.org/2000/svg" xmlns:xlink="http://www.w3.org/1999/xlink" xml:space="preserve" xmlns:serif="http://www.serif.com/" style="fill-rule:evenodd;clip-rule:evenodd;stroke-linejoin:round;stroke-miterlimit:2;">
    <g transform="matrix(0.964834,0,0,0.964834,27.5652,-0.830399)">
        <path d="M764.22,401.972C1526.1,292.851 1537.49,1439.22 825.443,1461.95C33.72,1487.22 111.881,495.405 764.22,401.972Z" style="fill:rgb(45,169,108);"/>
    </g>
    <path d="M655.162,391.168C278.592,513.744 147.751,963.098 338.556,1228.69C427.646,1352.7 586.676,1438.03 824.642,1430.43C1167.31,1419.49 1343.21,1149.33 1348.65,883.067C1352.29,705.046 1279.4,529.257 1130.5,433.401C1037.61,373.602 914.903,344.58 761.972,366.484L761.971,366.484C739.145,369.753 717.025,374.123 695.642,379.506C691.828,335.233 707.896,296.779 730.902,269.632C731.528,286.707 738.284,300.868 748.042,311.705C773.579,340.066 822.518,344.358 849.823,318.23C861.515,307.043 869.922,290.327 870.173,266.885C870.55,231.66 858.03,209.778 840.987,197.862C838.444,196.084 835.764,194.512 832.96,193.153C844.961,187.136 857.665,182.608 870.069,179.542C894.494,173.503 918.05,172.701 932.697,179.905C942.973,184.959 955.42,180.719 960.474,170.442C965.528,160.166 961.288,147.719 951.012,142.665C929.738,132.202 895.585,130.483 860.108,139.255C824.345,148.096 787.615,167.276 762.233,195.425C704.899,220.002 642.863,295.304 655.162,391.168ZM859.673,400.68C830.483,400.723 799.881,402.941 767.85,407.528L767.85,407.528C725.181,413.64 685.142,423.884 647.816,437.647C490.456,623.988 678.892,837.384 692.154,984.998C706.676,1146.64 567.158,1197.26 616.613,1367.14C639.437,1373.36 663.522,1378.37 688.884,1382.05C739.754,1228.77 832.682,997.821 760.481,867.399C658.684,683.513 690.102,516.224 859.673,400.68ZM1002.02,420.076C861.475,465.523 798.778,689.169 861.907,755.46C1068.73,972.641 866.035,1229.71 911.202,1271.45C928.107,1287.07 1008.77,1247.01 1040.14,1159.45C1067.55,1082.93 1019.77,973.715 1041.44,978.263C1061.04,982.374 1130.49,1063.33 1130.02,1152.63C1129.73,1208.64 1122.65,1256.43 1102.44,1298.07C1139.56,1271.09 1171.64,1239.16 1198.69,1203.69C1237.25,1081.75 1229.41,904.934 1059.23,833.204C856.385,747.701 1022.19,521.19 1079.73,451.657C1055.73,438.893 1029.83,428.268 1002.02,420.076ZM439.861,575.394C416.041,600.875 394.983,628.345 376.774,657.25C330.252,745.831 326.265,813.043 365.524,896.309C445.96,1066.91 399.144,1167.11 372.537,1204.93C385.423,1222.81 399.907,1239.78 416.021,1255.64C441.069,1172.98 582.696,1074.62 528.672,892.279C500.022,795.583 392.632,691.906 439.861,575.394ZM1260.45,647.47C1219.21,610.365 1173.76,592.863 1162.01,599.223C1102.24,631.55 1070.44,686.993 1139.75,723.689C1197.42,754.218 1281.09,852.754 1297.49,976.797C1303.31,945.564 1306.55,913.856 1307.2,882.219C1308.87,800.621 1293.38,719.369 1260.45,647.47ZM786.769,230.563C782.152,236.923 778.342,243.838 775.557,251.31C770.357,265.258 772.191,276.504 778.882,283.936C789.516,295.746 809.762,299.126 821.132,288.246C826.016,283.573 828.571,276.234 828.676,266.441C828.859,249.322 825.491,237.665 817.209,231.875C809.288,226.337 798.356,227.059 786.769,230.563Z" style="fill:rgb(26,104,66);"/>
    <g transform="matrix(0.216154,0,0,0.216154,605.326,827.967)">
        <path d="M700.614,427.151C1634.9,257.45 1989.96,1468.4 1027.16,1567.14C82.032,1664.07 -189.347,588.802 700.614,427.151Z" style="fill:rgb(255,129,143);"/>
        <path d="M683.473,332.783C430.065,378.812 261.303,493.325 164.558,632.305C62.943,778.281 38.424,953.475 83.13,1119.11C167.367,1431.2 504.334,1717.17 1036.94,1662.55C1485.81,1616.52 1680.59,1353.58 1693.03,1078.67C1711.21,677.072 1319.8,217.203 683.474,332.783L683.473,332.783ZM717.755,521.519C1202.66,433.442 1515.26,763.962 1501.4,1070C1492.49,1266.89 1338.86,1438.76 1017.37,1471.73C604.784,1514.04 333.581,1310.88 268.326,1069.12C205.942,837.991 346.34,588.982 717.755,521.519L717.755,521.519Z" style="fill:white;"/>
    </g>
    <g transform="matrix(0.964834,0,0,0.964834,56.5921,20.6199)">
        <path d="M428.069,868.379C419.286,830.255 434.503,791.873 461.564,761.843C503.775,715 575.42,687.544 640.019,713.005C651.062,717.357 663.561,711.926 667.913,700.883C672.265,689.84 666.833,677.341 655.791,672.988C574.083,640.784 483.002,673.8 429.611,733.049C392.935,773.749 374.251,826.366 386.154,878.035C388.819,889.602 400.373,896.829 411.94,894.164C423.506,891.5 430.734,879.946 428.069,868.379Z" style="fill:white;"/>
    </g>
    <g transform="matrix(0.523729,0.810317,-0.810317,0.523729,1370.9,-93.4953)">
        <path d="M441.434,823.334C445.438,776.064 483.123,732.528 529.312,706.738C574.837,681.32 629.687,672.573 671.24,698.995C681.256,705.364 694.558,702.403 700.927,692.386C707.296,682.37 704.335,669.068 694.319,662.699C639.918,628.107 567.945,635.905 508.344,669.183C449.408,702.089 403.683,759.39 398.575,819.705C397.574,831.532 406.363,841.947 418.19,842.949C430.017,843.951 440.433,835.162 441.434,823.334Z" style="fill:white;"/>
    </g>
</svg>
