<?xml version="1.0" encoding="UTF-8" standalone="no"?><!DOCTYPE svg PUBLIC "-//W3C//DTD SVG 1.1//EN" "http://www.w3.org/Graphics/SVG/1.1/DTD/svg11.dtd"><svg width="848px" height="1305px" version="1.1" xmlns="http://www.w3.org/2000/svg" xmlns:xlink="http://www.w3.org/1999/xlink" xml:space="preserve" xmlns:serif="http://www.serif.com/" style="fill-rule:evenodd;clip-rule:evenodd;stroke-linecap:square;stroke-miterlimit:10;"><g><path d="M507.535,202.688c-21.879,-5.754 -31.178,-11.554 -49.632,-26.781l-6.274,-5.177l0.724,8.102c0.725,8.119 3.55,15.701 9.423,22.509l2.221,2.574l5.148,-4.441l-2.221,-2.575c-2.62,-3.037 -4.504,-6.263 -5.78,-9.643c14.81,11.585 24.836,16.794 44.662,22.009l3.288,0.865l1.73,-6.577l-3.289,-0.865Z" style="fill:#8b8f9f;"/><path d="M440.884,209.93c-32.231,-11.36 -59.214,-53.315 -67.493,-78.488l-3.697,-11.243l-2.834,11.492c-2.837,11.51 -2.831,25.419 -2.116,34.797c-2.294,-1.093 -4.757,-2.583 -7.128,-4.134c-6.526,-4.267 -12.305,-9.158 -12.305,-9.158l-6.457,-5.465l0.879,8.414c3.504,33.542 16.858,61.521 38.878,84.606c-26.498,-3.135 -46.933,-11.946 -63.853,-24.069l-2.764,-1.98l-3.96,5.528l2.763,1.98c19.771,14.165 44.101,24.07 76.725,26.177l9.504,0.614l-6.966,-6.494c-22.91,-21.357 -37.467,-47.431 -42.487,-78.893c2.876,2.138 6.375,4.583 9.85,6.629c3.795,2.234 7.588,3.972 10.612,4.536l4.598,0.857l-0.603,-4.638c-0.748,-5.752 -1.345,-15.74 -0.462,-25.752c12.043,26.333 37.585,60.71 67.055,71.098l3.207,1.13l2.26,-6.413l-3.206,-1.131Z" style="fill:#8b8f9f;"/><path d="M304.877,100.064c-36.04,29.516 -53.263,96.944 -34.106,153.795c1.253,31.016 10.076,60.32 22.121,79.985c8.494,13.868 18.716,22.963 28.943,25.19l5.989,1.305l-2.064,-5.772c-2.534,-7.085 -5.482,-17.746 -4.91,-26.076l0.233,-3.392l-6.784,-0.466l-0.233,3.392c-0.467,6.805 1.119,15.031 3.109,22.02c-6.595,-3.621 -12.875,-10.595 -18.484,-19.753c-11.61,-18.955 -20.015,-47.273 -21.144,-77.188l-0.019,-0.497l-0.161,-0.471c-18.461,-54.16 -2.551,-118.663 31.818,-146.811l2.631,-2.155l-4.309,-5.26l-2.63,2.154Z" style="fill:#8b8f9f;"/><path d="M318.914,95.377c24.231,-31.654 55.986,-48.355 95.763,-49.114l0.613,-0.012l0.57,-0.225c32.747,-12.919 62.944,-11.167 90.407,6.393l2.864,1.831l3.663,-5.729l-2.864,-1.831c-29.178,-18.657 -61.233,-20.768 -95.997,-7.213c-41.671,0.959 -74.982,18.539 -100.419,51.767l-2.067,2.7l5.4,4.133l2.067,-2.7Z" style="fill:#8b8f9f;"/><path d="M517.386,59.275c77.083,55.176 100.678,133.302 76.406,231.992l-0.812,3.302l6.603,1.624l0.812,-3.302c25.03,-101.769 0.437,-182.248 -79.051,-239.145l-2.765,-1.979l-3.958,5.529l2.765,1.979Z" style="fill:#8b8f9f;"/><path d="M337.274,108.856l-7.638,12.962l12.469,-8.418c51.715,-34.911 119.234,-40.607 172.89,-2.075l10.104,7.256l-5.008,-11.387c-10.171,-23.121 -34.218,-39.951 -62.457,-46.699c-42.027,-10.042 -93.16,2.199 -120.36,48.361Zm15.019,-9.649c26.77,-32.42 68.673,-40.482 103.761,-32.098c20.839,4.979 39.326,15.744 50.693,30.77c-48.956,-28.518 -106.661,-25.01 -154.453,1.327l-0.001,0.001Z" style="fill:#8b8f9f;"/><circle cx="534.903" cy="114.717" r="12.871" style="fill:none;stroke:#8b8f9f;stroke-width:6.8px;"/><path d="M545.01,321.732c-2.83,11.281 -7.577,23.162 -14.127,35.593l-4.335,8.227l8.619,-3.491c21.336,-8.641 42.064,-30.641 60.227,-57.566l1.902,-2.818l-5.637,-3.803l-1.902,2.818c-14.781,21.911 -31.181,40.569 -48.318,50.672c4.516,-9.675 7.917,-19.01 10.166,-27.978l0.828,-3.297l-6.596,-1.655l-0.827,3.298Z" style="fill:#8b8f9f;"/><path d="M534.161,269.227c-3.972,27.862 -13.073,55.77 -25.661,83.716l-6.344,14.083l11.671,-10.118c31.38,-27.205 49.672,-65.803 59.307,-111.889l0.696,-3.328l-6.656,-1.392l-0.696,3.328c-7.998,38.259 -22.05,71.24 -45.087,96.434c9.391,-23.32 16.187,-46.616 19.502,-69.874l0.48,-3.366l-6.732,-0.96l-0.48,3.366Z" style="fill:#8b8f9f;"/><path d="M332.666,293.046c-0,-0 7.267,13.536 15.314,24.03c3.655,4.768 7.507,8.9 10.926,11.1c11.091,7.134 36.956,17.613 54.388,23.223c7.846,2.526 14.085,4.026 16.752,4.011c3.498,-0.019 14.018,-2.734 26.501,-7.062c18.357,-6.365 41.072,-16.137 51.656,-24.926c13.027,-10.818 28.272,-32.636 32.246,-51.559l0.699,-3.327l-6.655,-1.398l-0.698,3.327c-3.682,17.531 -17.868,37.703 -29.936,47.725c-10.137,8.418 -31.958,17.638 -49.54,23.734c-11.476,3.979 -21.095,6.669 -24.311,6.687c-2.336,0.013 -7.758,-1.473 -14.631,-3.685c-16.912,-5.443 -42.032,-15.547 -52.792,-22.469c-3.94,-2.535 -8.408,-8.168 -12.435,-13.941c-6.35,-9.104 -11.492,-18.685 -11.492,-18.685l-1.608,-2.996l-5.992,3.215l1.608,2.996Z" style="fill:#8b8f9f;"/><path d="M491.533,301.072l7.448,-4.914c0,-0 3.942,5.13 3.942,5.13l13.575,-5.49l-2.549,-6.304l-8.783,3.552c-0,0 -4.647,-6.049 -4.647,-6.049l-12.73,8.399l3.744,5.676Z" style="fill:#8b8f9f;"/><path d="M470.748,261.451c-3.915,-3.86 -6.067,-7.872 -6.988,-11.938c2.504,2.496 5.287,4.534 8.401,6.222l2.428,1.315l1.786,-2.107c4.851,-5.725 5.724,-15.875 4.108,-22.89l-0.763,-3.313l-6.626,1.526l0.763,3.313c0.99,4.302 0.966,10.243 -1.122,14.556c-3.782,-2.575 -6.896,-5.975 -9.542,-10.524l-4.743,-8.153l-1.55,9.304c-1.553,9.321 0.156,18.74 9.075,27.531l2.421,2.387l4.774,-4.843l-2.422,-2.386Z" style="fill:#8b8f9f;"/><path d="M489.348,271.162c7.808,-1.228 17.225,-5.337 22.012,-10.777l3.816,-4.338l-5.645,-1.23c-4.392,-0.957 -8.561,-2.842 -11.955,-5.075c1.37,-4.951 1.459,-10.292 0.638,-15.427l-0.537,-3.357l-6.715,1.074l0.537,3.358c0.776,4.849 0.617,9.933 -1.107,14.465l-0.899,2.365l2.007,1.541c2.882,2.212 6.422,4.25 10.296,5.777c-3.998,2.48 -9.091,4.212 -13.505,4.907l-3.359,0.528l1.057,6.718l3.359,-0.529Z" style="fill:#8b8f9f;"/><path d="M517.504,266.736l10.815,4.136l2.429,-6.352l-10.814,-4.136l-2.43,6.352Z" style="fill:#8b8f9f;"/><path d="M403.918,370.404c5.985,3.916 19.331,8.334 34.862,4.612l3.307,-0.793l-1.585,-6.613l-3.307,0.793c-13.154,3.153 -24.485,-0.372 -29.554,-3.689l-2.845,-1.862l-3.723,5.69l2.845,1.862Z" style="fill:#8b8f9f;"/><path d="M461.187,361.612c-2.099,1.217 -6.409,3.33 -8.752,3.823l-3.328,0.7l1.4,6.654l3.328,-0.7c2.87,-0.603 8.191,-3.103 10.762,-4.594l2.941,-1.705l-3.41,-5.883l-2.941,1.705Z" style="fill:#8b8f9f;"/><path d="M499.085,563.175l48.571,-0.832l-0.117,-6.799l-48.57,0.832l0.116,6.799Z" style="fill:#8b8f9f;"/><path d="M214.61,974.899c0,-0 15.737,-22.717 20.29,-32.505c1.79,-3.849 3.454,-16.361 4.845,-30.492c1.972,-20.015 3.512,-43.439 5.223,-47.666c0.357,-0.882 2.432,-3.136 5.345,-6.329c13.281,-14.558 43.882,-44.517 43.882,-44.517l2.43,-2.379l-4.758,-4.859l-2.429,2.379c0,-0 -30.786,30.146 -44.149,44.793c-3.75,4.111 -6.164,7.225 -6.624,8.36c-1.492,3.685 -3.07,21.294 -4.708,39.184c-1.551,16.942 -3.129,34.156 -5.223,38.658c-4.415,9.491 -19.711,31.496 -19.711,31.496l-1.938,2.793l5.587,3.877l1.938,-2.793Z" style="fill:#8b8f9f;"/><path d="M225.671,989.246l-5.431,-5.045c14.148,-4.679 51.152,-17.108 57.007,-21.031c3.34,-2.238 37.073,-33.748 59.623,-53.444c9.143,-7.988 16.245,-14.045 18.416,-14.854c6.309,-2.35 118.377,-19.737 133.344,-22.053c33.061,31.339 62.369,63.944 87.428,97.984l0.841,1.142l1.404,0.206c23.44,3.436 43.269,7.159 59.356,11.851c-0.001,0 -12.361,10.288 -12.361,10.288l-2.613,2.175l4.35,5.226l24.519,-20.408l-5.844,-1.911c-17.047,-5.574 -38.777,-9.858 -65.018,-13.742c-25.411,-34.357 -55.109,-67.268 -88.601,-98.898l-1.21,-1.142l-1.645,0.254c0,0 -129.495,20.112 -136.324,22.656c-2.393,0.891 -10.436,7.299 -20.516,16.104c-22.305,19.484 -55.63,50.703 -58.934,52.917c-7.061,4.731 -60.805,22.014 -60.805,22.014l-5.513,1.783l13.899,12.91l4.628,-4.982Z" style="fill:#8b8f9f;"/><path d="M466.275,363.06c1.474,-0.183 3.251,0.153 5.234,0.749c3.569,1.073 7.665,3.034 11.838,5.314c11.188,6.112 22.88,14.412 27.265,15.972c1.646,0.585 4.304,0.665 7.708,0.155c6.309,-0.945 15.833,-3.739 25.82,-6.031c8.173,-1.875 16.667,-3.421 23.84,-3.149c4.225,0.161 7.957,0.921 10.707,2.859c0.987,0.695 2.452,2.506 4.096,4.635c4.391,5.682 9.556,13.638 9.556,13.638l1.852,2.851l5.703,-3.704l-1.852,-2.851c-0,-0 -5.341,-8.22 -9.878,-14.092c-2.181,-2.824 -4.252,-5.114 -5.56,-6.036c-3.708,-2.612 -8.671,-3.878 -14.366,-4.095c-7.705,-0.293 -16.839,1.302 -25.619,3.317c-8.44,1.936 -16.543,4.247 -22.603,5.454c-3.245,0.647 -5.744,1.133 -7.125,0.642c-4.236,-1.507 -15.474,-9.627 -26.285,-15.533c-8.085,-4.416 -16.031,-7.483 -21.172,-6.843l-3.374,0.421l0.841,6.747l3.374,-0.42Z" style="fill:#8b8f9f;"/><path d="M547.476,557.402l2.62,-42.876l-9.295,-15.764l0.685,-29.426l-6.798,-0.158l-0.73,31.366l9.224,15.644l-2.493,40.799l6.787,0.415Z" style="fill:#8b8f9f;"/><path d="M512.62,502.58l4.455,-30.422l-6.728,-0.985l-4.455,30.422l6.728,0.985Z" style="fill:#8b8f9f;"/><path d="M631.994,365.35c-0,-0 5.874,-14.165 11.117,-23.51c1.263,-2.251 2.476,-4.211 3.557,-5.563c0.383,-0.479 0.654,-0.893 0.952,-1.04c0.496,-0.245 1.237,-0.273 2.161,-0.332c1.436,-0.091 3.18,-0.09 5.183,-0.112c6.503,-0.069 15.526,-0.358 25.65,-4.009l3.198,-1.154l-2.307,-6.396l-3.199,1.153c-10.84,3.91 -20.318,3.538 -26.337,3.639c-3.357,0.057 -5.866,0.376 -7.36,1.114c-0.75,0.37 -1.636,1.046 -2.551,2.062c-1.424,1.581 -3.131,4.198 -4.878,7.311c-5.404,9.633 -11.467,24.23 -11.467,24.23l-1.303,3.14l6.28,2.607l1.304,-3.14Z" style="fill:#8b8f9f;"/><path d="M708.482,316.986c-0.194,-0.079 -0.405,-0.173 -0.554,-0.255c-0.246,-0.135 -0.485,-0.28 -0.71,-0.425c0.907,-5.138 3.113,-18.418 3.034,-25.668c-0.021,-1.989 -0.232,-3.607 -0.579,-4.68c-0.296,-0.914 -0.719,-1.595 -1.159,-2.077c-0.894,-0.977 -2.972,-1.923 -5.618,-2.299c-4.124,-0.586 -9.859,-0.327 -9.859,-0.327l-3.297,0.153l0.056,3.301c0.2,11.723 -0.721,23.196 -5.185,33.889l-1.31,3.138l6.275,2.619l1.31,-3.137c4.394,-10.525 5.698,-21.735 5.734,-33.224c1.163,0.009 2.505,0.048 3.793,0.154c0.913,0.075 2.127,0.319 2.835,0.474c0.079,1.089 0.222,3.539 0.095,5.558c-0.586,9.278 -3.187,22.966 -3.187,22.966l-0.368,1.94l1.502,1.281c-0,-0 2.178,1.842 4.36,2.824c1.422,0.639 2.874,0.898 4.043,0.727c1.398,-0.205 3.59,-1.608 5.701,-4.549c5.188,-7.226 12.791,-24.86 16.222,-37.449c1.073,0.091 2.335,0.245 3.506,0.506c0.485,0.108 1.112,0.336 1.546,0.507c-0.094,0.573 -0.253,1.425 -0.449,2.084c-1.19,3.992 -3.589,8.932 -3.589,8.932l-1.483,3.06l6.12,2.964l1.482,-3.06c0,0 2.662,-5.508 3.987,-9.954c0.753,-2.528 0.981,-4.822 0.662,-6.148c-0.446,-1.851 -2.202,-3.598 -4.958,-4.519c-3.716,-1.241 -9.414,-1.303 -9.414,-1.303l-2.707,-0.015l-0.62,2.635c-2.457,10.43 -8.789,26.062 -13.862,34.721c-1.112,1.899 -2.692,3.86 -3.355,4.656Z" style="fill:#8b8f9f;"/><path d="M765.596,285.177c-0.286,0.844 -0.758,2.173 -1.271,3.405c-2.429,5.829 -6.857,14.928 -9.929,18.609c-3.507,4.203 -29.332,29.241 -29.332,29.241l-2.24,2.173l1.973,2.417c0,0 1.873,2.29 3.627,3.949c1.022,0.967 2.057,1.72 2.809,2.059c0.949,0.427 2.151,0.618 3.59,0.405c1.893,-0.281 4.519,-1.398 7.534,-3.242c7.729,-4.728 18.764,-14.369 26.901,-22.398c0.646,0.788 1.331,1.69 1.914,2.601c0.383,0.599 0.789,1.536 0.978,1.993c-0.707,0.837 -2.342,2.352 -4.492,4.36c-10.671,9.966 -33.514,29.453 -37.78,33.084c-6.235,1.137 -42.577,7.786 -44.342,8.592c-1.274,0.582 -2.885,2.084 -4.353,4.071c-2.609,3.529 -5.113,8.562 -5.113,8.562l-1.511,3.045l6.091,3.023l1.511,-3.046c0,0 1.63,-3.286 3.554,-6.198c0.591,-0.894 1.207,-1.752 1.812,-2.444c0.315,-0.36 0.56,-0.702 0.835,-0.828c1.86,-0.85 43.625,-8.249 43.625,-8.249l0.902,-0.162l0.698,-0.593c-0,-0 26.841,-22.8 38.713,-33.888c3.339,-3.118 5.552,-5.483 6.051,-6.348c0.969,-1.68 0.9,-4.229 -0.447,-6.894c-1.88,-3.72 -6.095,-8.024 -6.095,-8.024l-2.432,-2.457l-2.416,2.472c-7.884,8.063 -19.948,18.906 -28.153,23.925c-1.551,0.949 -2.938,1.679 -4.105,2.083c-0.283,0.098 -0.689,0.182 -0.901,0.223c-0.381,-0.267 -0.832,-0.775 -1.306,-1.259c-0.126,-0.128 -0.251,-0.258 -0.374,-0.387c6.499,-6.332 24.578,-24.008 27.495,-27.504c3.368,-4.036 8.322,-13.96 10.985,-20.351c1.333,-3.199 2.044,-5.681 2.066,-6.483c0.032,-1.174 -0.509,-2.707 -1.94,-4.123c-2.628,-2.601 -9.255,-5.715 -9.255,-5.715l-2.991,-1.37l-1.468,2.943c-5.474,10.973 -10.551,18.72 -15.342,23.168l-0.047,0.044l-25.336,25.367l4.811,4.805l25.248,-25.277c4.741,-4.42 9.836,-11.745 15.2,-22.031c0.616,0.334 1.274,0.707 1.916,1.1c0.707,0.434 1.587,1.115 2.132,1.552Z" style="fill:#8b8f9f;"/><path d="M660.277,475.262c-0.117,0.636 -0.321,1.632 -0.582,2.551c-1.429,5.052 -4.635,13.596 -8.753,23.799c-11.105,27.52 -28.821,66.957 -36.869,83.047c-1.577,3.152 -3.255,6.05 -3.443,6.373c-3.655,3.539 -21.898,13.268 -35.032,18.629c-5.161,2.106 -9.404,3.662 -11.412,3.455c-0.503,-0.052 -1.062,-0.414 -1.719,-0.837c-1.061,-0.683 -2.209,-1.62 -3.388,-2.688c-6.009,-5.443 -12.631,-14.171 -12.631,-14.171l-2.057,-2.707l-5.414,4.114l2.057,2.707c-0,0 7.073,9.294 13.48,15.097c3.335,3.021 6.673,5.012 8.975,5.249c2.559,0.264 8.101,-1.239 14.679,-3.924c14.143,-5.772 33.71,-16.525 37.379,-20.222c0.622,-0.627 2.326,-3.472 4.608,-8.033c8.096,-16.186 25.922,-55.859 37.093,-83.544c4.237,-10.498 7.519,-19.295 8.99,-24.492c0.812,-2.869 1.041,-4.912 0.904,-5.888c-0.119,-0.841 -0.533,-1.868 -1.51,-2.909c-1.001,-1.067 -2.939,-2.427 -5.649,-3.966c-12.699,-7.213 -44.722,-20.42 -60.853,-39.144c4.426,-18.019 11.205,-35.18 20.016,-51.601c26.957,6.848 51.423,18.334 71.592,37.819c-5.135,14.069 -11.347,27.925 -23.823,47.573l-1.822,2.87l5.74,3.645l1.823,-2.87c13.434,-21.159 19.791,-35.782 25.223,-50.97l0.726,-2.03l-1.526,-1.523c-21.985,-21.928 -48.986,-34.519 -78.866,-41.751l-2.525,-0.611l-1.253,2.276c-9.992,18.155 -17.565,37.191 -22.32,57.255l-0.386,1.628l1.054,1.298c14.292,17.614 42.305,30.863 58.129,39c4.015,2.064 8.103,4.675 9.365,5.496Z" style="fill:#8b8f9f;"/><path d="M544.065,585.846c4.13,-32.683 33.708,-106.942 52.608,-142.125l1.609,-2.995l-5.99,-3.218l-1.609,2.995c-19.21,35.759 -49.166,111.273 -53.364,144.49l-0.426,3.374l6.746,0.852l0.426,-3.373Z" style="fill:#8b8f9f;"/><path d="M576.142,945.136l15.353,-52.75l-11.354,-81.719l-6.735,0.936l11.153,80.278l-14.946,51.354l6.529,1.901Z" style="fill:#8b8f9f;"/><path d="M495.819,862.027l13.156,-53.014l-6.599,-1.638l-13.156,53.014l6.599,1.638Z" style="fill:#8b8f9f;"/><path d="M355.151,882.869l3.274,-54.438l-10.819,-20.872l-6.037,3.13l9.956,19.206l-3.162,52.565l6.788,0.409Z" style="fill:#8b8f9f;"/><path d="M270.389,950.471l-1.506,-71.275l38.963,-58.949l-5.673,-3.749l-40.134,60.719l1.552,73.398l6.798,-0.144Z" style="fill:#8b8f9f;"/><path d="M440.157,1025.49c10.176,70.623 27.582,137.141 50.326,200.629l0.11,0.305l0.165,0.28c12.872,21.745 26.158,36.665 39.703,46.188l0.669,0.47l0.81,0.115c10.719,1.515 19.072,-0.369 25.233,-5.167c6.103,-4.753 10.151,-12.484 11.946,-23.205l0.083,-0.494l-27.52,-216.112c-3.288,-59.33 -13.78,-101.798 -33.209,-121.644l-2.379,-2.43l-4.859,4.758l2.379,2.429c18.713,19.115 28.128,60.217 31.285,117.384l0.007,0.122l27.423,215.351c-1.487,8.451 -4.476,14.693 -9.334,18.476c-4.738,3.69 -11.164,4.924 -19.295,3.907c-12.617,-9.056 -24.921,-23.116 -36.922,-43.329c-22.544,-62.981 -39.798,-128.959 -49.891,-199.003l-0.484,-3.365l-6.731,0.97l0.485,3.365Z" style="fill:#8b8f9f;"/><path d="M533.824,1023.99c-27.024,26.31 -54.986,29.78 -83.164,27.411l-3.388,-0.285l-0.57,6.777l3.388,0.284c29.994,2.522 59.713,-1.309 88.478,-29.314l2.436,-2.372l-4.743,-4.873l-2.437,2.372Z" style="fill:#8b8f9f;"/><path d="M424.003,1026.46c-45.605,-12.417 -62.632,-46.092 -65.072,-91.619l-0.182,-3.395l-6.79,0.364l0.182,3.395c2.613,48.749 21.243,84.52 70.075,97.816l3.281,0.893l1.787,-6.561l-3.281,-0.893Z" style="fill:#8b8f9f;"/><path d="M491.75,891.437c-0,-0 1.943,20.79 -3.803,43.667c-3.771,15.015 -10.849,30.979 -24.177,42.362c-28.112,24.011 -109.441,147.37 -128.754,198.727l-1.197,3.183l6.365,2.393l1.197,-3.182c19.037,-50.623 99.096,-172.283 126.805,-195.95c14.457,-12.348 22.266,-29.589 26.356,-45.876c6.048,-24.077 3.978,-45.961 3.978,-45.961l-0.318,-3.385l-6.77,0.637l0.318,3.385Z" style="fill:#8b8f9f;"/><path d="M385.953,885.095c-50.242,56.33 -89.287,144.657 -111.208,281.181l-0.122,0.759l0.216,0.737c2.628,8.96 5.408,15.77 8.454,20.111c2.506,3.572 5.3,5.635 8.238,6.343c4.859,1.172 25.725,3.402 39.716,-5.097l2.905,-1.765l-3.53,-5.811l-2.906,1.765c-12.179,7.398 -30.361,5.318 -34.591,4.298c-1.584,-0.382 -2.914,-1.712 -4.265,-3.638c-2.654,-3.783 -4.987,-9.69 -7.278,-17.384c21.666,-134.373 59.93,-221.457 109.445,-276.972l2.264,-2.538l-5.075,-4.526l-2.263,2.537Z" style="fill:#8b8f9f;"/><path d="M317.711,980.159c-0,0 -12.828,-3.843 -17.541,-3.444c-1.432,0.122 -7.276,2.004 -14.06,4.345c-9.305,3.211 -20.569,7.275 -23.266,7.558c-4.366,0.46 -30.506,0.968 -30.506,0.968l-3.399,0.068l0.134,6.798l3.399,-0.067c0,0 26.635,-0.535 31.084,-1.004c2.866,-0.302 14.883,-4.481 24.772,-7.893c6.013,-2.075 11.147,-3.89 12.416,-3.997c4.031,-0.342 14.957,3.164 14.957,3.164l3.248,1.005l2.01,-6.496l-3.248,-1.005Z" style="fill:#8b8f9f;"/><path d="M615.099,996.204c0,0 -13.897,-6.405 -23.904,-10.392c-4.692,-1.869 -8.63,-3.169 -10.226,-3.306c-0.896,-0.077 -3.031,0.136 -5.862,0.628c-9.721,1.69 -29.104,6.334 -29.104,6.334l-3.306,0.793l1.585,6.613l3.306,-0.793c0,0 14.654,-3.514 24.748,-5.51c3.897,-0.771 7.026,-1.378 8.051,-1.29c1.303,0.112 4.464,1.323 8.291,2.848c9.869,3.932 23.574,10.25 23.574,10.25l3.088,1.424l2.847,-6.176l-3.088,-1.423Z" style="fill:#8b8f9f;"/><path d="M653.592,973.296c4.298,-21.755 4.901,-45.075 2.22,-69.777l-0.161,-1.483l-1.2,-0.886c-35.279,-26.034 -35.701,-28.998 -52.642,-91.347l-0.892,-3.281l-6.562,1.783l0.892,3.281c17.462,64.267 18.378,67.829 53.962,94.146c2.42,23.427 1.797,45.565 -2.289,66.246l-0.659,3.336l6.672,1.318l0.659,-3.336Z" style="fill:#8b8f9f;"/><path d="M69.217,1216.86l-0,-421.304l-6.8,0l-0,421.304l6.8,0Z" style="fill:#8b8f9f;"/><path d="M765.566,802.266l-3.306,-3.306l0,3.4l-0.08,0l-0,414.504l0.08,0l0,0l3.4,0l3.4,0l0,-417.904l-0.08,0.081l-0,-0.081l-3.192,3.192c0.691,-1.14 3.784,-6.592 -0.13,-6.592c-1.055,0 -0.215,5.887 -0.092,6.706Z" style="fill:#8b8f9f;"/><path d="M84.807,1216.86l0,-421.304l-6.8,0l0,421.304l6.8,0Z" style="fill:#8b8f9f;"/><path d="M781.127,802.237l-3.276,-3.277l-0,3.4l-0.081,0l0,414.504l0.081,0l-0,0l3.4,0l3.4,0l-0,-417.904l-0.081,0.081l0,-0.081l-3.219,3.22c0.592,-1.076 3.464,-6.62 -0.118,-6.62c-2.346,0 -0.428,5.757 -0.106,6.677Zm-3.357,0.123l0,-3.4l0,3.4Z" style="fill:#8b8f9f;"/><path d="M428.041,462.671c0.144,-5.058 1.551,-10.891 4.005,-17.419l1.196,-3.182l-6.365,-2.393l-1.196,3.182c-2.762,7.346 -4.275,13.925 -4.438,19.617l-0.097,3.399l6.797,0.195l0.098,-3.399Z" style="fill:#8b8f9f;"/><path d="M445.846,466.339c-4.479,-5.341 -10.465,-15.131 -12.768,-22.944l-0.962,-3.261l-6.522,1.923l0.961,3.261c2.547,8.639 9.128,19.484 14.08,25.39l2.185,2.605l5.21,-4.369l-2.184,-2.605Z" style="fill:#8b8f9f;"/><path d="M432.911,503.81c-1.024,-6.141 -1.018,-16.604 -0.337,-27.792l0.207,-3.393l-6.787,-0.413l-0.207,3.393c-0.718,11.804 -0.663,22.843 0.416,29.323l0.559,3.354l6.708,-1.118l-0.559,-3.354Z" style="fill:#8b8f9f;"/><path d="M429.885,436.339c-1.774,-1.565 -3.084,-2.752 -3.505,-3.149l-2.472,-2.334l-4.668,4.945l2.472,2.334c0.445,0.42 1.827,1.663 3.701,3.303c-0.806,0.908 -1.611,1.805 -2.405,2.674c-2.409,2.637 -4.701,5.007 -6.579,6.573c-0.258,0.215 -0.548,0.431 -0.82,0.624c-0.215,-0.487 -0.45,-1.08 -0.591,-1.608c-0.901,-3.382 -1.223,-8.166 -0.869,-12.241c0.205,-2.357 0.574,-4.467 1.348,-5.737l1.769,-2.904l-5.807,-3.538l-1.769,2.903c-1.18,1.938 -2.003,5.091 -2.316,8.687c-0.421,4.855 0,10.551 1.073,14.581c0.56,2.099 1.328,3.799 2.171,4.914c1.024,1.355 2.255,2.073 3.489,2.305c0.97,0.183 2.291,0.053 3.801,-0.749c1.681,-0.893 4.031,-2.894 6.626,-5.525c1.893,-1.918 3.958,-4.196 6.02,-6.537c3.74,3.16 7.828,6.473 10.516,8.269c1.692,1.13 3.077,1.714 3.817,1.836c0.92,0.153 1.651,-0.012 2.197,-0.248c0.871,-0.376 2.109,-1.431 2.627,-3.595c0.725,-3.034 0.573,-10.372 -0.445,-16.302c-0.665,-3.875 -1.793,-7.157 -3.008,-8.692c-1.368,-1.731 -3.025,-2.237 -4.63,-1.962c-0.67,0.114 -1.979,0.703 -3.48,2.102c-1.91,1.78 -4.928,5.243 -8.263,9.071Zm11.739,-2.986c-1.732,1.766 -4.071,4.456 -6.631,7.412c2.917,2.478 6.021,5.02 8.385,6.725l0,-0.015c0.068,-3.045 -0.221,-7.051 -0.814,-10.505c-0.204,-1.189 -0.592,-2.539 -0.94,-3.617Z" style="fill:#8b8f9f;"/><path d="M38.671,690.904c0.357,-0.466 0.81,-1.009 1.273,-1.448c23.459,-22.231 91.356,-86.471 119.393,-111.885c5.583,-5.061 10.579,-9.25 11.391,-9.927c3.972,-1.156 12.015,-0.985 12.015,-0.985l3.4,0.045l0.09,-6.8l-3.4,-0.045c0,0 -10.093,-0.065 -14.614,1.446c-0.293,0.098 -0.957,0.41 -1.857,1.096c-1.778,1.356 -5.875,4.949 -11.592,10.131c-28.063,25.438 -96.023,89.737 -119.503,111.988c-2.052,1.945 -3.238,3.71 -3.741,5.13c-0.617,1.742 -0.453,3.254 0.195,4.526c0.579,1.135 1.62,2.176 3.327,2.862c1.464,0.589 3.644,0.956 6.558,0.921c66.502,-0.792 508.993,-0.761 508.993,-0.761l3.4,0l0,-6.8l-3.4,-0c0,-0 -442.562,-0.031 -509.074,0.762c-0.994,0.012 -2.061,-0.123 -2.854,-0.256Z" style="fill:#8b8f9f;"/><path d="M30.77,703.565c0.026,5.504 5.53,11.525 15.797,11.402c66.501,-0.792 494.465,-0.761 494.465,-0.761l3.4,-0l0,-6.8l-3.4,-0c0,-0 -428.034,-0.031 -494.547,0.762c-3.015,0.036 -5.434,-0.628 -7.078,-1.791c-1.104,-0.78 -1.832,-1.759 -1.837,-2.844l-0.017,-3.4l-6.8,0.032l0.017,3.4Z" style="fill:#8b8f9f;"/><path d="M52.417,713.96c-0,0 -0.003,64.848 0,65.049c0.194,13.571 11.177,22.867 23.192,22.77c66.504,-0.542 321.784,-0.762 321.784,-0.762l3.4,-0.003l-0.006,-6.8l-3.4,0.003c0,-0 -255.319,0.22 -321.834,0.762c-8.47,0.069 -16.2,-6.499 -16.337,-16.067c-0.002,-0.201 0.001,-64.952 0.001,-64.952l-0,-3.4l-6.8,0l-0,3.4Z" style="fill:#8b8f9f;"/><path d="M787.788,713.96c0,0 0.003,64.751 0,64.952c-0.136,9.568 -7.866,16.136 -16.337,16.067c-66.514,-0.542 -374.058,-0.762 -374.058,-0.762l-3.4,-0.003l-0.005,6.8l3.4,0.003c-0,-0 307.503,0.22 374.008,0.762c12.015,0.097 22.998,-9.199 23.192,-22.77c0.003,-0.201 0,-65.049 0,-65.049l-0,-3.4l-6.8,0l0,3.4Z" style="fill:#8b8f9f;"/><path d="M808.341,703.533c-0.006,1.085 -0.734,2.064 -1.838,2.844c-1.644,1.163 -4.063,1.827 -7.078,1.791c-66.518,-0.793 -259.98,-0.762 -259.98,-0.762l-3.4,0l0.001,6.8l3.4,-0c-0,-0 193.401,-0.031 259.898,0.761c10.266,0.123 15.77,-5.898 15.797,-11.402l0.016,-3.4l-6.8,-0.032l-0.016,3.4Z" style="fill:#8b8f9f;"/><path d="M809.388,690.904c-0.792,0.133 -1.859,0.268 -2.853,0.256c-66.518,-0.793 -255.374,-0.762 -255.374,-0.762l-3.4,0l0.001,6.8l3.4,-0c-0,-0 188.795,-0.031 255.292,0.761c2.914,0.035 5.093,-0.332 6.557,-0.921c1.707,-0.686 2.748,-1.727 3.327,-2.862c0.649,-1.272 0.812,-2.784 0.195,-4.526c-0.503,-1.42 -1.688,-3.185 -3.74,-5.13c-16.804,-15.924 -56.395,-53.39 -87.83,-82.725c-1.524,-1.422 -21.802,-21.113 -36.501,-33.696c-6.751,-5.78 -12.495,-10.035 -14.998,-10.875c-5.402,-1.814 -32.215,-1.721 -32.215,-1.721l-3.4,0.028l0.055,6.799l3.4,-0.027c-0,0 24.968,-0.321 29.996,1.367c2.154,0.724 6.928,4.619 12.74,9.594c14.613,12.51 34.769,32.088 36.284,33.502c31.421,29.323 70.995,66.772 87.791,82.69c0.463,0.439 0.916,0.982 1.273,1.448Z" style="fill:#8b8f9f;"/><path d="M479.261,493.337l-2.36,0.987l0.294,2.541c1.131,9.752 2.989,19.737 6.551,30.277l0.516,1.527l1.509,0.567c10.344,3.889 20.076,4.187 32.719,2.655l2.351,-0.285l0.548,-2.303c2.91,-12.226 2.54,-25.417 2.166,-38.465l-0.084,-2.918l-2.897,-0.359c-13.407,-1.662 -25.919,-0.664 -41.313,5.776Zm5.004,5.315c11.94,-4.618 22.054,-5.625 32.577,-4.656c0.299,10.652 0.463,21.346 -1.56,31.415c-9.661,1.011 -17.492,0.754 -25.607,-1.999c-2.768,-8.566 -4.372,-16.756 -5.41,-24.76l0,-0Z" style="fill:#8b8f9f;"/><path d="M133.188,617.803c-0.493,0.602 -1.267,2.305 -1.898,4.919c-1.835,7.596 -4.196,24.988 -4.782,36.985c-0.232,4.757 -0.167,8.711 0.253,11.015c0.346,1.896 1.08,3.104 1.72,3.709c1.093,1.034 3.863,2.137 7.859,2.721c7.214,1.055 19.176,1.217 29.514,0.632c7.031,-0.399 13.321,-1.156 16.952,-2.164c2.445,-0.679 3.99,-1.696 4.66,-2.529c0.585,-0.727 1.154,-1.982 1.403,-3.771c0.347,-2.485 0.222,-6.522 -0.296,-11.315c-1.141,-10.577 -4.111,-25.055 -7.018,-33.921c-1.475,-4.498 -3.142,-7.677 -4.417,-8.847c-0.944,-0.866 -2.774,-1.697 -5.346,-2.12c-4.176,-0.685 -10.869,-0.635 -17.44,-0.13c-6.516,0.501 -12.909,1.439 -16.564,2.44c-2.491,0.682 -4.037,1.691 -4.6,2.376Zm39.433,2.53c0.174,0.205 0.327,0.531 0.526,0.917c0.63,1.224 1.281,2.925 1.946,4.953c2.788,8.502 5.625,22.389 6.72,32.532c0.348,3.229 0.522,6.065 0.44,8.188c-0.024,0.604 -0.125,1.31 -0.199,1.757c-0.562,0.198 -1.589,0.54 -2.506,0.735c-3.446,0.735 -8.513,1.264 -14.078,1.579c-9.859,0.559 -21.266,0.436 -28.146,-0.57c-1.476,-0.216 -3.088,-0.671 -3.85,-0.901c-0.068,-0.377 -0.152,-0.91 -0.192,-1.389c-0.168,-2.049 -0.14,-4.862 0.018,-8.095c0.497,-10.165 2.301,-24.331 3.935,-32.641c0.392,-1.994 0.95,-4.012 1.227,-4.972c1.982,-0.443 9.948,-2.162 16.412,-2.659c5.155,-0.396 10.392,-0.519 14.19,-0.147c1.503,0.147 3.277,0.634 3.557,0.713Z" style="fill:#8b8f9f;"/><path d="M173.207,648.516c-0.276,-1.912 -2.052,-3.24 -3.964,-2.964l-6.928,1.001c-1.912,0.277 -3.24,2.053 -2.964,3.965l1.573,10.887c0.277,1.912 2.053,3.24 3.965,2.963l6.928,-1.001c1.912,-0.276 3.24,-2.052 2.963,-3.964l-1.573,-10.887Z" style="fill:none;stroke:#8b8f9f;stroke-width:6.8px;"/><path d="M482.103,559.454c0.844,-0.236 1.709,0.311 2.702,0.986c1.737,1.18 3.535,3.057 5.345,5.339c6.472,8.158 12.814,21.321 15.451,30.123c0.528,1.762 0.904,3.334 1.08,4.636c0.102,0.751 0.219,1.343 0.08,1.729l-1.15,3.2l6.399,2.301l1.15,-3.2c0.668,-1.857 0.417,-5.738 -1.045,-10.617c-2.837,-9.47 -9.676,-23.622 -16.638,-32.398c-2.813,-3.547 -5.698,-6.239 -8.34,-7.64c-2.425,-1.286 -4.757,-1.597 -6.862,-1.009l-3.275,0.914l1.828,6.549l3.275,-0.913Z" style="fill:#8b8f9f;"/><path d="M484.283,611.802c-0.783,0.47 -2.281,1.315 -3.735,1.853c-6.427,2.378 -17.326,4.252 -27.954,2.29c0.004,-0.632 0.034,-1.325 0.114,-2c0.058,-0.49 0.265,-1.23 0.356,-1.541c0.758,-0.356 2.052,-0.609 3.501,-0.895c4.951,-0.979 11.532,-1.523 11.532,-1.523l4.851,-0.404l-2.048,-4.416c-0,0 -1.913,-4.112 -4.112,-7.293c-1.155,-1.67 -2.428,-3.08 -3.557,-3.842c-0.796,-0.538 -1.921,-0.942 -3.365,-1.036c-1.31,-0.084 -3.017,0.079 -4.97,0.48c-6.492,1.33 -16.224,5.315 -21.992,8.396l-2.999,1.602l3.204,5.998l2.999,-1.602c5.289,-2.825 14.2,-6.513 20.153,-7.733c1.284,-0.263 2.962,-0.309 3.369,-0.315c0.786,0.637 1.573,1.873 2.332,3.092c0.171,0.275 0.338,0.551 0.5,0.826c-2.246,0.271 -4.898,0.641 -7.216,1.099c-2.73,0.54 -5.042,1.287 -6.171,2.019c-1.332,0.864 -2.396,2.577 -2.869,4.758c-0.688,3.179 -0.275,7.449 -0.275,7.449l0.244,2.388l2.331,0.569c12.865,3.143 26.571,0.909 34.402,-1.989c4.185,-1.548 6.838,-3.553 7.673,-4.943c0.695,-1.158 0.974,-3.381 -0.05,-6.264c-2.312,-6.51 -11.126,-19.294 -16.856,-25.879l-2.232,-2.565l-5.13,4.464l2.232,2.565c4.646,5.34 11.53,15.045 14.612,21.432c0.474,0.984 0.896,2.23 1.126,2.96Z" style="fill:#8b8f9f;"/><path d="M495.184,602.632c-0.027,0.228 -0.111,0.885 -0.223,1.271c-0.478,1.646 -1.353,3.204 -1.353,3.204l-1.662,2.966l5.932,3.324l1.662,-2.966c0,0 1.736,-3.138 2.271,-5.952c0.356,-1.874 0.156,-3.639 -0.549,-4.91c-3.423,-6.17 -13.751,-24.533 -22.111,-35.937c-4.076,-5.559 -7.952,-9.457 -10.415,-10.391c-1.124,-0.427 -2.701,-0.589 -4.619,-0.347c-2.05,0.258 -4.641,0.966 -7.457,1.959c-10.135,3.574 -23.497,10.864 -23.497,10.864l-2.984,1.63l3.26,5.968l2.984,-1.63c-0,-0 12.791,-6.996 22.498,-10.419c1.938,-0.683 3.741,-1.222 5.269,-1.503c0.907,-0.167 1.643,-0.351 2.133,-0.165c0.544,0.206 1.142,0.762 1.87,1.467c1.614,1.565 3.479,3.867 5.474,6.588c8.086,11.03 18.039,28.714 21.517,34.979Z" style="fill:#8b8f9f;"/><path d="M377.029,563.613c10.685,-2.286 30.194,-5.715 44.155,-4.446c0.443,22.806 -2.298,44.835 -7.468,63.806c-16.358,0.534 -29.933,-3.886 -41.34,-7.202l-3.265,-0.949l-1.898,6.53l3.265,0.949c12.59,3.659 27.707,8.481 46.061,7.345l2.396,-0.148l0.662,-2.307c5.998,-20.901 9.109,-45.617 8.31,-71.16l-0.089,-2.839l-2.81,-0.417c-14.753,-2.193 -37.388,1.618 -49.401,4.188l-3.325,0.712l1.422,6.649l3.325,-0.711Z" style="fill:#8b8f9f;"/><circle cx="401.651" cy="604.166" r="7.89" style="fill:none;stroke:#8b8f9f;stroke-width:6.8px;"/><circle cx="429.23" cy="524.348" r="7.89" style="fill:none;stroke:#8b8f9f;stroke-width:6.8px;"/><circle cx="667.578" cy="417.543" r="7.89" style="fill:none;stroke:#8b8f9f;stroke-width:6.8px;"/><path d="M451.291,365.499c-0.378,-1.848 -2.185,-3.041 -4.032,-2.664l-6.696,1.368c-1.848,0.378 -3.042,2.185 -2.664,4.032l1.368,6.696c0.378,1.848 2.184,3.042 4.032,2.664l6.696,-1.368c1.848,-0.378 3.041,-2.184 2.664,-4.032l-1.368,-6.696Z" style="fill:none;stroke:#8b8f9f;stroke-width:6.8px;"/><path d="M294.747,541.63c8.612,-17.302 18.689,-33.917 28.152,-46.692l2.024,-2.732l-5.464,-4.048l-2.024,2.732c-9.67,13.055 -19.976,30.029 -28.775,47.71l-1.515,3.044l6.087,3.029l1.515,-3.043Z" style="fill:#8b8f9f;"/><path d="M326.788,492.821c-2.106,6.818 -5.234,37.773 -3.006,52.326l0.514,3.361l6.722,-1.029l-0.515,-3.361c-2.117,-13.828 0.831,-43.422 2.809,-49.377c0.252,-0.76 0.372,-1.86 0.194,-3.242c-0.245,-1.908 -1.087,-4.716 -2.286,-7.893c-3.667,-9.722 -10.646,-23.305 -10.646,-23.305l-1.555,-3.023l-6.048,3.109l1.555,3.024c0,-0 6.776,13.168 10.332,22.595c1.078,2.859 1.845,6.411 1.93,6.815Z" style="fill:#8b8f9f;"/><path d="M249.056,537.265c7.656,5.612 13.345,7.63 21.233,8.418l3.383,0.337l0.676,-6.766l-3.383,-0.338c-6.651,-0.664 -11.433,-2.403 -17.889,-7.135l-2.742,-2.01l-4.02,5.484l2.742,2.01Z" style="fill:#8b8f9f;"/><path d="M228.976,615.398c44.799,8.006 90.406,9.375 134.255,5.679l2.318,-0.195l0.657,-2.231c6.011,-20.378 6.986,-39.668 4.905,-58.302l-0.279,-2.5l-2.472,-0.464c-28.065,-5.269 -55.228,-8.423 -81.699,-9.954c-4.585,-8.65 -6.846,-18.875 -7.452,-30.251l-0.181,-3.396l-6.79,0.362l0.181,3.395c0.705,13.244 3.556,25.037 9.231,34.878l0.92,1.595l1.838,0.101c25.996,1.43 52.663,4.434 80.205,9.491c1.563,16.316 0.62,33.175 -4.29,50.887c-42.553,3.404 -86.736,1.969 -130.15,-5.789l-3.347,-0.598l-1.197,6.694l3.347,0.598Z" style="fill:#8b8f9f;"/><path d="M219.396,605.495c-9.796,-4.215 -16.945,-14.575 -20.734,-23.84c-2.379,-5.819 -3.536,-11.176 -2.75,-14.188c3.74,-14.345 43.585,-71.938 43.585,-71.938l0.279,-0.405l0.153,-0.468c-0,0 13.643,-41.765 30.378,-73.309c6.95,-13.101 14.359,-24.449 21.603,-29.946c11.822,-8.973 23.812,-8.667 35.292,-7.609c8.436,0.778 16.64,1.953 24.409,0.928c8.036,-1.06 15.751,-7 23.416,-12.639c6.456,-4.75 12.822,-9.395 19.752,-8.678l3.382,0.35l0.7,-6.764l-3.382,-0.35c-8.49,-0.879 -16.573,4.146 -24.481,9.964c-6.698,4.927 -13.255,10.449 -20.277,11.375c-9.222,1.217 -19.085,-0.951 -29.222,-1.412c-11.077,-0.505 -22.433,0.867 -33.7,9.418c-7.816,5.932 -15.999,18.04 -23.499,32.176c-15.939,30.043 -29.122,69.22 -30.681,73.917c-3.58,5.238 -40.629,59.645 -44.287,73.675c-1.018,3.902 -0.047,10.938 3.036,18.477c4.405,10.771 12.951,22.612 24.34,27.513l3.123,1.344l2.688,-6.247l-3.123,-1.344Z" style="fill:#8b8f9f;"/><path d="M435.988,399.205l15.407,31.567l2.59,-0.539c20.78,-4.332 35.39,-28.135 38.517,-50.099l0.198,-1.385l-0.835,-1.123c-6.811,-9.161 -19.446,-16.326 -27.064,-17.18l-3.379,-0.379l-0.758,6.758l3.379,0.379c6.025,0.675 15.708,6.281 21.509,13.383c-2.973,17.971 -14.032,37.316 -30.42,42.337c-0,0 -11.542,-23.646 -11.542,-23.646l-1.491,-3.055l-6.111,2.982Z" style="fill:#8b8f9f;"/><path d="M434.855,428.935l5.148,-25.439c17.796,-7.627 24.056,-19.001 27.767,-31.205l0.211,-0.694l-0.091,-0.72c-1.238,-9.829 -1.957,-18.479 1.39,-26.625l1.292,-3.145l-6.29,-2.584l-1.292,3.145c-3.697,8.999 -3.267,18.528 -1.937,29.329c-3.34,10.619 -9.108,20.442 -25.282,26.891l-1.709,0.681l-5.872,29.017l6.665,1.349Z" style="fill:#8b8f9f;"/><path d="M392.728,359.996c-8.572,4.182 -16.518,8.963 -23.184,21.667l-0.477,0.908l0.105,1.02c1.993,19.354 11.69,38.66 32.26,46.174l2.751,1.006l16.865,-30.967l-5.972,-3.253l-14.012,25.729c-15.72,-7.062 -23.159,-22.691 -25.014,-38.36c5.678,-10.332 12.438,-14.29 19.659,-17.812l3.056,-1.49l-2.981,-6.112l-3.056,1.49Z" style="fill:#8b8f9f;"/><path d="M390.39,343.595c4.003,10.442 3.036,18.975 2.794,26.967c-5.312,12.158 0.104,24.568 22.114,32.691c-0.001,-0 4.446,22.478 4.446,22.478l0.659,3.335l6.671,-1.319l-5.86,-29.627l-1.851,-0.637c-18.286,-6.288 -24.268,-15.009 -19.721,-24.7l0.303,-0.647l0.018,-0.714c0.22,-8.968 1.286,-18.498 -3.224,-30.261l-1.217,-3.174l-6.349,2.434l1.217,3.174Z" style="fill:#8b8f9f;"/><path d="M424.988,327.479c5.87,0.418 11.501,0.427 16.763,0.009l0.841,3.274l3.293,-0.846c2.811,-0.722 6.778,-2.644 8.015,-5.882l-3.861,-4.544c-10.762,2.214 -24.021,1.943 -38.028,-0.428l-3.112,5.607c2.963,3.345 7.358,5.358 11.835,6.339l3.321,0.728l0.933,-4.257Z" style="fill:#8b8f9f;"/><path d="M420.798,290.65c1.379,2.028 3.1,3.708 5.317,4.887l3.001,1.597l3.194,-6.003l-3.002,-1.597c-1.214,-0.646 -2.13,-1.595 -2.885,-2.706l-1.911,-2.812l-5.625,3.821l1.911,2.813Z" style="fill:#8b8f9f;"/><path d="M450.645,235.791l-11.444,12.592l15.404,-7.228c26.775,-12.562 51.873,-8.488 78.367,9.44l6.967,4.714l-1.734,-8.231c-1.491,-7.077 -4.414,-13.173 -8.922,-18.195c4.567,-4.127 9.511,-10.834 11.219,-15.277l3.205,-8.34l-7.939,4.099c-10.373,5.355 -22.698,6.372 -31.776,6.829c-12.116,0.61 -38.718,3.499 -53.347,19.597Zm26.443,-8.283c10.404,-3.363 20.981,-4.207 27.246,-4.523c7.127,-0.359 16.077,-1.11 24.749,-3.689c-2.167,2.682 -4.622,5.108 -6.685,6.345l-3.96,2.376l3.444,3.076c2.809,2.508 5.017,5.42 6.679,8.705c-17.345,-10.043 -34.256,-14.325 -51.47,-12.291l-0.003,0.001Z" style="fill:#8b8f9f;"/><path d="M454.727,225.932c6.977,-6.489 18.129,-11.284 27.941,-12.035l3.39,-0.26l-0.519,-6.78l-3.39,0.26c-11.261,0.862 -24.047,6.389 -32.053,13.836l-2.49,2.316l4.631,4.979l2.49,-2.316Z" style="fill:#8b8f9f;"/><path d="M353.947,300.945l7.315,-5.232c0,0 4.564,6.512 4.564,6.512l14,-6.997l-3.04,-6.083l-8.756,4.376c0,0 -5.139,-7.332 -5.139,-7.332l-12.9,9.225l3.956,5.531Z" style="fill:#8b8f9f;"/><path d="M327.876,258.887c1.749,26.089 5.557,50.994 11.993,75.196c-18.734,-21.153 -32.46,-52.162 -43.485,-88.532l-0.987,-3.254l-6.507,1.973l0.986,3.254c13.171,43.447 30.322,79.357 54.638,100.823l9.052,7.991l-3.552,-11.541c-8.525,-27.691 -13.332,-56.224 -15.353,-86.365l-0.228,-3.393l-6.785,0.455l0.228,3.393Z" style="fill:#8b8f9f;"/><path d="M501.078,131.672c12.784,36.255 40,59.037 77.286,74.65c-11.843,3.532 -21.67,6.323 -30.781,6.526l-3.54,0.079l0.223,3.533c0.562,8.949 -0.659,14.506 -2.365,20.594l-0.917,3.274l6.548,1.835l0.917,-3.274c1.665,-5.944 2.899,-11.433 2.746,-19.429c11.007,-0.924 23.205,-4.938 38.528,-9.419l9.825,-2.873l-9.591,-3.576c-39.948,-14.894 -69.332,-36.933 -82.466,-74.182l-1.131,-3.206l-6.413,2.261l1.131,3.207Z" style="fill:#8b8f9f;"/><path d="M454.279,157.698c8.602,6.043 24.882,11.673 39.152,10.826l3.394,-0.202l-0.403,-6.788l-3.394,0.202c-12.695,0.753 -27.187,-4.226 -34.84,-9.602l-2.782,-1.955l-3.91,5.564l2.783,1.955Z" style="fill:#8b8f9f;"/></g></svg>