<?xml version="1.0" encoding="UTF-8" standalone="no"?><!DOCTYPE svg PUBLIC "-//W3C//DTD SVG 1.1//EN" "http://www.w3.org/Graphics/SVG/1.1/DTD/svg11.dtd"><svg width="848px" height="1305px" version="1.1" xmlns="http://www.w3.org/2000/svg" xmlns:xlink="http://www.w3.org/1999/xlink" xml:space="preserve" xmlns:serif="http://www.serif.com/" style="fill-rule:evenodd;clip-rule:evenodd;stroke-linecap:square;stroke-miterlimit:10;"><g><path d="M507.535,202.688c-21.879,-5.754 -31.178,-11.554 -49.632,-26.781l-6.274,-5.177l0.724,8.102c0.725,8.119 3.55,15.701 9.423,22.509l2.221,2.574l5.148,-4.441l-2.221,-2.575c-2.62,-3.037 -4.504,-6.263 -5.78,-9.643c14.81,11.585 24.836,16.794 44.662,22.009l3.288,0.865l1.73,-6.577l-3.289,-0.865Z" style="fill:#8b8f9f;"/><path d="M440.884,209.93c-32.231,-11.36 -59.214,-53.315 -67.493,-78.488l-3.697,-11.243l-2.834,11.492c-2.837,11.51 -2.831,25.419 -2.116,34.797c-2.294,-1.093 -4.757,-2.583 -7.128,-4.134c-6.526,-4.267 -12.305,-9.158 -12.305,-9.158l-6.457,-5.465l0.879,8.414c3.504,33.542 16.858,61.521 38.878,84.606c-26.498,-3.135 -46.933,-11.946 -63.853,-24.069l-2.764,-1.98l-3.96,5.528l2.763,1.98c19.771,14.165 44.101,24.07 76.725,26.177l9.504,0.614l-6.966,-6.494c-22.91,-21.357 -37.467,-47.431 -42.487,-78.893c2.876,2.138 6.375,4.583 9.85,6.629c3.795,2.234 7.588,3.972 10.612,4.536l4.598,0.857l-0.603,-4.638c-0.748,-5.752 -1.345,-15.74 -0.462,-25.752c12.043,26.333 37.585,60.71 67.055,71.098l3.207,1.13l2.26,-6.413l-3.206,-1.131Z" style="fill:#8b8f9f;"/><path d="M304.877,100.064c-36.04,29.516 -53.263,96.944 -34.106,153.795c1.253,31.016 10.076,60.32 22.121,79.985c8.494,13.868 18.716,22.963 28.943,25.19l5.989,1.305l-2.064,-5.772c-2.534,-7.085 -5.482,-17.746 -4.91,-26.076l0.233,-3.392l-6.784,-0.466l-0.233,3.392c-0.467,6.805 1.119,15.031 3.109,22.02c-6.595,-3.621 -12.875,-10.595 -18.484,-19.753c-11.61,-18.955 -20.015,-47.273 -21.144,-77.188l-0.019,-0.497l-0.161,-0.471c-18.461,-54.16 -2.551,-118.663 31.818,-146.811l2.631,-2.155l-4.309,-5.26l-2.63,2.154Z" style="fill:#8b8f9f;"/><path d="M318.914,95.377c24.231,-31.654 55.986,-48.355 95.763,-49.114l0.613,-0.012l0.57,-0.225c32.747,-12.919 62.944,-11.167 90.407,6.393l2.864,1.831l3.663,-5.729l-2.864,-1.831c-29.178,-18.657 -61.233,-20.768 -95.997,-7.213c-41.671,0.959 -74.982,18.539 -100.419,51.767l-2.067,2.7l5.4,4.133l2.067,-2.7Z" style="fill:#8b8f9f;"/><path d="M517.386,59.275c77.083,55.176 100.678,133.302 76.406,231.992l-0.812,3.302l6.603,1.624l0.812,-3.302c25.03,-101.769 0.437,-182.248 -79.051,-239.145l-2.765,-1.979l-3.958,5.529l2.765,1.979Z" style="fill:#8b8f9f;"/><path d="M337.274,108.856l-7.638,12.962l12.469,-8.418c51.715,-34.911 119.234,-40.607 172.89,-2.075l10.104,7.256l-5.008,-11.387c-10.171,-23.121 -34.218,-39.951 -62.457,-46.699c-42.027,-10.042 -93.16,2.199 -120.36,48.361Zm15.019,-9.649c26.77,-32.42 68.673,-40.482 103.761,-32.098c20.839,4.979 39.326,15.744 50.693,30.77c-48.956,-28.518 -106.661,-25.01 -154.453,1.327l-0.001,0.001Z" style="fill:#8b8f9f;"/><circle cx="534.903" cy="114.717" r="12.871" style="fill:none;stroke:#8b8f9f;stroke-width:6.8px;"/><path d="M545.01,321.732c-2.83,11.281 -7.577,23.162 -14.127,35.593l-4.335,8.227l8.619,-3.491c21.336,-8.641 42.064,-30.641 60.227,-57.566l1.902,-2.818l-5.637,-3.803l-1.902,2.818c-14.781,21.911 -31.181,40.569 -48.318,50.672c4.516,-9.675 7.917,-19.01 10.166,-27.978l0.828,-3.297l-6.596,-1.655l-0.827,3.298Z" style="fill:#8b8f9f;"/><path d="M534.161,269.227c-3.972,27.862 -13.073,55.77 -25.661,83.716l-6.344,14.083l11.671,-10.118c31.38,-27.205 49.672,-65.803 59.307,-111.889l0.696,-3.328l-6.656,-1.392l-0.696,3.328c-7.998,38.259 -22.05,71.24 -45.087,96.434c9.391,-23.32 16.187,-46.616 19.502,-69.874l0.48,-3.366l-6.732,-0.96l-0.48,3.366Z" style="fill:#8b8f9f;"/><path d="M392.552,344.125c0.066,0.128 0.178,0.361 0.233,0.528c0.226,0.694 0.353,1.528 0.442,2.45c0.281,2.913 0.132,6.535 0.19,9.916l0.059,3.399l6.799,-0.117l-0.059,-3.399c-0.09,-5.227 0.14,-10.967 -0.967,-14.359c-0.84,-2.574 -2.374,-4.186 -4.414,-4.827c-12.33,-3.87 -25.749,-11.077 -32.25,-15.259c-3.94,-2.535 -8.408,-8.168 -12.435,-13.941c-6.35,-9.104 -11.492,-18.685 -11.492,-18.685l-1.608,-2.996l-5.992,3.215l1.608,2.996c-0,-0 7.267,13.536 15.314,24.03c3.655,4.768 7.507,8.9 10.926,11.1c6.789,4.367 20.759,11.866 33.646,15.949Z" style="fill:#8b8f9f;"/><path d="M489.711,337.604c26.804,-13.868 28.446,-18.388 50.485,-64.986l1.453,-3.074l-6.147,-2.907l-1.454,3.073c-20.879,44.149 -22.067,48.715 -47.461,61.854l-3.02,1.562l3.125,6.04l3.019,-1.562Z" style="fill:#8b8f9f;"/><path d="M491.533,301.072l7.448,-4.914c0,-0 3.942,5.13 3.942,5.13l13.575,-5.49l-2.549,-6.304l-8.783,3.552c-0,0 -4.647,-6.049 -4.647,-6.049l-12.73,8.399l3.744,5.676Z" style="fill:#8b8f9f;"/><path d="M458.288,325.394c5.506,3.741 19.731,19.171 22.582,23.283c0.082,0.559 0.815,5.675 1,10.304c0.555,13.968 0.023,35.061 0.023,35.061l-0.029,1.138l11.167,15.618l5.531,-3.955l-9.846,-13.771c0.117,-5.375 0.547,-28.409 -0.371,-39.997c-0.326,-4.119 -1.052,-7.03 -1.699,-8.001c-2.84,-4.259 -19.361,-22.074 -25.106,-25.678c-1.627,-1.02 -3.862,-1.109 -6.195,-0.216c-3.287,1.259 -6.914,4.499 -6.914,4.499l-2.573,2.334l2.389,2.522c6.284,6.634 12.471,13.613 18.298,21.846c1.924,7.365 2.214,13.695 1.381,19.34l-0.496,3.364l6.727,0.992l0.496,-3.363c0.973,-6.596 0.65,-14.017 -1.697,-22.683l-0.156,-0.576l-0.342,-0.488c-5.334,-7.601 -10.96,-14.172 -16.698,-20.36c0.378,-0.244 0.774,-0.48 1.176,-0.69c0.401,-0.21 1.05,-0.427 1.352,-0.523Z" style="fill:#8b8f9f;"/><path d="M471.022,246.897c0.797,0.281 2.1,0.774 2.974,1.269c0.962,0.545 2.162,1.472 2.723,1.92c-0.163,1.628 -0.951,9.173 -1.837,11.871c-0.257,0.03 -0.594,0.063 -0.816,0.058c-0.999,-0.023 -1.873,-0.214 -1.873,-0.214l-3.319,-0.736l-1.474,6.638l3.32,0.737c-0,-0 3.351,0.697 5.866,0.144c1.885,-0.415 3.364,-1.449 4.137,-2.979c1.089,-2.159 2.522,-8.823 2.814,-13.304c0.177,-2.717 -0.274,-4.823 -0.792,-5.649c-1.036,-1.649 -5.586,-4.908 -9.196,-6.162c-2.316,-0.805 -4.365,-0.705 -5.54,-0.133c-0.636,0.31 -1.307,0.824 -1.924,1.592c-0.756,0.94 -1.526,2.441 -2.191,4.233c-0.226,0.609 -0.444,1.256 -0.652,1.921c-0.472,-2.912 -0.252,-5.66 0.314,-7.973l0.809,-3.303l-6.605,-1.617l-0.809,3.302c-1.492,6.093 -1.218,14.453 4.449,22.328l6.108,-1.396c0,0 1.14,-6.528 2.761,-10.897c0.202,-0.544 0.51,-1.178 0.753,-1.65Z" style="fill:#8b8f9f;"/><path d="M489.348,271.162c7.808,-1.228 17.225,-5.337 22.012,-10.777l3.816,-4.338l-5.645,-1.23c-4.392,-0.957 -8.561,-2.842 -11.955,-5.075c1.37,-4.951 1.459,-10.292 0.638,-15.427l-0.537,-3.357l-6.715,1.074l0.537,3.358c0.776,4.849 0.617,9.933 -1.107,14.465l-0.899,2.365l2.007,1.541c2.882,2.212 6.422,4.25 10.296,5.777c-3.998,2.48 -9.091,4.212 -13.505,4.907l-3.359,0.528l1.057,6.718l3.359,-0.529Z" style="fill:#8b8f9f;"/><path d="M517.504,266.736l10.815,4.136l2.429,-6.352l-10.814,-4.136l-2.43,6.352Z" style="fill:#8b8f9f;"/><path d="M499.061,563.151l36.112,-0.363l-0.069,-6.8l-36.112,0.363l0.069,6.8Z" style="fill:#8b8f9f;"/><path d="M625.3,542.927c4.98,1.649 10.237,3.893 16.077,7.383l2.918,1.745l3.489,-5.837l-2.919,-1.744c-6.33,-3.784 -12.029,-6.215 -17.428,-8.002l-3.228,-1.069l-2.137,6.456l3.228,1.068Z" style="fill:#8b8f9f;"/><path d="M214.61,974.899c0,-0 15.737,-22.717 20.29,-32.505c1.79,-3.849 3.454,-16.361 4.845,-30.492c1.972,-20.015 3.512,-43.439 5.223,-47.666c0.357,-0.882 2.432,-3.136 5.345,-6.329c13.281,-14.558 43.882,-44.517 43.882,-44.517l2.43,-2.379l-4.758,-4.859l-2.429,2.379c0,-0 -30.786,30.146 -44.149,44.793c-3.75,4.111 -6.164,7.225 -6.624,8.36c-1.492,3.685 -3.07,21.294 -4.708,39.184c-1.551,16.942 -3.129,34.156 -5.223,38.658c-4.415,9.491 -19.711,31.496 -19.711,31.496l-1.938,2.793l5.587,3.877l1.938,-2.793Z" style="fill:#8b8f9f;"/><path d="M225.671,989.246l-5.431,-5.045c14.148,-4.679 51.152,-17.108 57.007,-21.031c3.34,-2.238 37.073,-33.748 59.623,-53.444c9.143,-7.988 16.245,-14.045 18.416,-14.854c6.309,-2.35 118.377,-19.737 133.344,-22.053c33.061,31.339 62.369,63.944 87.428,97.984l0.841,1.142l1.404,0.206c23.44,3.436 43.269,7.159 59.356,11.851c-0.001,0 -12.361,10.288 -12.361,10.288l-2.613,2.175l4.35,5.226l24.519,-20.408l-5.844,-1.911c-17.047,-5.574 -38.777,-9.858 -65.018,-13.742c-25.411,-34.357 -55.109,-67.268 -88.601,-98.898l-1.21,-1.142l-1.645,0.254c0,0 -129.495,20.112 -136.324,22.656c-2.393,0.891 -10.436,7.299 -20.516,16.104c-22.305,19.484 -55.63,50.703 -58.934,52.917c-7.061,4.731 -60.805,22.014 -60.805,22.014l-5.513,1.783l13.899,12.91l4.628,-4.982Z" style="fill:#8b8f9f;"/><path d="M495.644,377.147c6.165,4.505 10.656,6.414 14.968,7.948c1.646,0.585 4.304,0.665 7.708,0.155c6.309,-0.945 15.833,-3.739 25.82,-6.031c8.173,-1.875 16.667,-3.421 23.84,-3.149c4.225,0.161 7.957,0.921 10.707,2.859c0.987,0.695 2.452,2.506 4.096,4.635c4.391,5.682 9.556,13.638 9.556,13.638l1.852,2.851l5.703,-3.704l-1.852,-2.851c-0,-0 -5.341,-8.22 -9.878,-14.092c-2.181,-2.824 -4.252,-5.114 -5.56,-6.036c-3.708,-2.612 -8.671,-3.878 -14.366,-4.095c-7.705,-0.293 -16.839,1.302 -25.619,3.317c-8.44,1.936 -16.543,4.247 -22.603,5.454c-3.245,0.647 -5.744,1.133 -7.125,0.642c-3.813,-1.357 -7.783,-3.047 -13.234,-7.031l-2.745,-2.007l-4.013,5.491l2.745,2.006Z" style="fill:#8b8f9f;"/><path d="M576.142,945.136l15.353,-52.75l-11.354,-81.719l-6.735,0.936l11.153,80.278l-14.946,51.354l6.529,1.901Z" style="fill:#8b8f9f;"/><path d="M495.819,862.027l13.156,-53.014l-6.599,-1.638l-13.156,53.014l6.599,1.638Z" style="fill:#8b8f9f;"/><path d="M355.151,882.869l3.274,-54.438l-10.819,-20.872l-6.037,3.13l9.956,19.206l-3.162,52.565l6.788,0.409Z" style="fill:#8b8f9f;"/><path d="M270.389,950.471l-1.506,-71.275l38.963,-58.949l-5.673,-3.749l-40.134,60.719l1.552,73.398l6.798,-0.144Z" style="fill:#8b8f9f;"/><path d="M440.157,1025.49c10.176,70.623 27.582,137.141 50.326,200.629l0.11,0.305l0.165,0.28c12.872,21.745 26.158,36.665 39.703,46.188l0.669,0.47l0.81,0.115c10.719,1.515 19.072,-0.369 25.233,-5.167c6.103,-4.753 10.151,-12.484 11.946,-23.205l0.083,-0.494l-27.52,-216.112c-3.288,-59.33 -13.78,-101.798 -33.209,-121.644l-2.379,-2.43l-4.859,4.758l2.379,2.429c18.713,19.115 28.128,60.217 31.285,117.384l0.007,0.122l27.423,215.351c-1.487,8.451 -4.476,14.693 -9.334,18.476c-4.738,3.69 -11.164,4.924 -19.295,3.907c-12.617,-9.056 -24.921,-23.116 -36.922,-43.329c-22.544,-62.981 -39.798,-128.959 -49.891,-199.003l-0.484,-3.365l-6.731,0.97l0.485,3.365Z" style="fill:#8b8f9f;"/><path d="M533.824,1023.99c-27.024,26.31 -54.986,29.78 -83.164,27.411l-3.388,-0.285l-0.57,6.777l3.388,0.284c29.994,2.522 59.713,-1.309 88.478,-29.314l2.436,-2.372l-4.743,-4.873l-2.437,2.372Z" style="fill:#8b8f9f;"/><path d="M424.003,1026.46c-45.605,-12.417 -62.632,-46.092 -65.072,-91.619l-0.182,-3.395l-6.79,0.364l0.182,3.395c2.613,48.749 21.243,84.52 70.075,97.816l3.281,0.893l1.787,-6.561l-3.281,-0.893Z" style="fill:#8b8f9f;"/><path d="M491.75,891.437c-0,-0 1.943,20.79 -3.803,43.667c-3.771,15.015 -10.849,30.979 -24.177,42.362c-28.112,24.011 -109.441,147.37 -128.754,198.727l-1.197,3.183l6.365,2.393l1.197,-3.182c19.037,-50.623 99.096,-172.283 126.805,-195.95c14.457,-12.348 22.266,-29.589 26.356,-45.876c6.048,-24.077 3.978,-45.961 3.978,-45.961l-0.318,-3.385l-6.77,0.637l0.318,3.385Z" style="fill:#8b8f9f;"/><path d="M385.953,885.095c-50.242,56.33 -89.287,144.657 -111.208,281.181l-0.122,0.759l0.216,0.737c2.628,8.96 5.408,15.77 8.454,20.111c2.506,3.572 5.3,5.635 8.238,6.343c4.859,1.172 25.725,3.402 39.716,-5.097l2.905,-1.765l-3.53,-5.811l-2.906,1.765c-12.179,7.398 -30.361,5.318 -34.591,4.298c-1.584,-0.382 -2.914,-1.712 -4.265,-3.638c-2.654,-3.783 -4.987,-9.69 -7.278,-17.384c21.666,-134.373 59.93,-221.457 109.445,-276.972l2.264,-2.538l-5.075,-4.526l-2.263,2.537Z" style="fill:#8b8f9f;"/><path d="M317.711,980.159c-0,0 -12.828,-3.843 -17.541,-3.444c-1.432,0.122 -7.276,2.004 -14.06,4.345c-9.305,3.211 -20.569,7.275 -23.266,7.558c-4.366,0.46 -30.506,0.968 -30.506,0.968l-3.399,0.068l0.134,6.798l3.399,-0.067c0,0 26.635,-0.535 31.084,-1.004c2.866,-0.302 14.883,-4.481 24.772,-7.893c6.013,-2.075 11.147,-3.89 12.416,-3.997c4.031,-0.342 14.957,3.164 14.957,3.164l3.248,1.005l2.01,-6.496l-3.248,-1.005Z" style="fill:#8b8f9f;"/><path d="M615.099,996.204c0,0 -13.897,-6.405 -23.904,-10.392c-4.692,-1.869 -8.63,-3.169 -10.226,-3.306c-0.896,-0.077 -3.031,0.136 -5.862,0.628c-9.721,1.69 -29.104,6.334 -29.104,6.334l-3.306,0.793l1.585,6.613l3.306,-0.793c0,0 14.654,-3.514 24.748,-5.51c3.897,-0.771 7.026,-1.378 8.051,-1.29c1.303,0.112 4.464,1.323 8.291,2.848c9.869,3.932 23.574,10.25 23.574,10.25l3.088,1.424l2.847,-6.176l-3.088,-1.423Z" style="fill:#8b8f9f;"/><path d="M653.592,973.296c4.298,-21.755 4.901,-45.075 2.22,-69.777l-0.161,-1.483l-1.2,-0.886c-35.279,-26.034 -35.701,-28.998 -52.642,-91.347l-0.892,-3.281l-6.562,1.783l0.892,3.281c17.462,64.267 18.378,67.829 53.962,94.146c2.42,23.427 1.797,45.565 -2.289,66.246l-0.659,3.336l6.672,1.318l0.659,-3.336Z" style="fill:#8b8f9f;"/><path d="M69.217,1216.86l-0,-421.304l-6.8,0l-0,421.304l6.8,0Z" style="fill:#8b8f9f;"/><path d="M765.566,802.266l-3.306,-3.306l0,3.4l-0.08,0l-0,414.504l0.08,0l0,0l3.4,0l3.4,0l0,-417.904l-0.08,0.081l-0,-0.081l-3.192,3.192c0.691,-1.14 3.784,-6.592 -0.13,-6.592c-1.055,0 -0.215,5.887 -0.092,6.706Z" style="fill:#8b8f9f;"/><path d="M84.807,1216.86l0,-421.304l-6.8,0l0,421.304l6.8,0Z" style="fill:#8b8f9f;"/><path d="M781.127,802.237l-3.276,-3.277l-0,3.4l-0.081,0l0,414.504l0.081,0l-0,0l3.4,0l3.4,0l-0,-417.904l-0.081,0.081l0,-0.081l-3.219,3.22c0.592,-1.076 3.464,-6.62 -0.118,-6.62c-2.346,0 -0.428,5.757 -0.106,6.677Zm-3.357,0.123l0,-3.4l0,3.4Z" style="fill:#8b8f9f;"/><path d="M428.041,462.671c0.144,-5.058 1.551,-10.891 4.005,-17.419l1.196,-3.182l-6.365,-2.393l-1.196,3.182c-2.762,7.346 -4.275,13.925 -4.438,19.617l-0.097,3.399l6.797,0.195l0.098,-3.399Z" style="fill:#8b8f9f;"/><path d="M445.846,466.339c-4.479,-5.341 -10.465,-15.131 -12.768,-22.944l-0.962,-3.261l-6.522,1.923l0.961,3.261c2.547,8.639 9.128,19.484 14.08,25.39l2.185,2.605l5.21,-4.369l-2.184,-2.605Z" style="fill:#8b8f9f;"/><path d="M432.911,503.81c-1.024,-6.141 -1.018,-16.604 -0.337,-27.792l0.207,-3.393l-6.787,-0.413l-0.207,3.393c-0.718,11.804 -0.663,22.843 0.416,29.323l0.559,3.354l6.708,-1.118l-0.559,-3.354Z" style="fill:#8b8f9f;"/><path d="M445.524,448.925c-4.783,-2.809 -17.64,-14.315 -19.144,-15.735l-2.472,-2.334l-4.668,4.945l2.472,2.334c1.498,1.414 13.62,12.16 19.358,15.994c1.692,1.13 3.077,1.714 3.817,1.836c0.92,0.153 1.651,-0.012 2.197,-0.248c3.154,-1.362 3.069,-1.117 5.565,-4.876l1.881,-2.832l-5.665,-3.762l-1.881,2.832c-0.762,1.149 -0.995,1.542 -1.46,1.846Z" style="fill:#8b8f9f;"/><path d="M415.664,451.434c-0.228,-0.508 -0.493,-1.159 -0.646,-1.733c-0.901,-3.382 -1.223,-8.166 -0.869,-12.241c0.205,-2.357 0.574,-4.467 1.348,-5.737l1.769,-2.904l-5.807,-3.538l-1.769,2.903c-1.18,1.938 -2.003,5.091 -2.316,8.687c-0.421,4.855 0,10.551 1.073,14.581c0.56,2.099 1.328,3.799 2.171,4.914c1.024,1.355 2.255,2.073 3.489,2.305c1.168,0.22 2.545,0.045 4.022,-0.701c1.287,-0.65 2.772,-1.819 4.294,-3.349c4.808,-4.833 10.445,-13.642 11.988,-15.462l2.198,-2.594l-5.188,-4.397l-2.198,2.594c-1.5,1.77 -6.946,10.364 -11.621,15.064c-0.586,0.589 -1.364,1.192 -1.938,1.608Z" style="fill:#8b8f9f;"/><path d="M38.671,690.904c0.357,-0.466 0.81,-1.009 1.273,-1.448c23.459,-22.231 91.356,-86.471 119.393,-111.885c5.583,-5.061 10.579,-9.25 11.391,-9.927c3.972,-1.156 12.015,-0.985 12.015,-0.985l3.4,0.045l0.09,-6.8l-3.4,-0.045c0,0 -10.093,-0.065 -14.614,1.446c-0.293,0.098 -0.957,0.41 -1.857,1.096c-1.778,1.356 -5.875,4.949 -11.592,10.131c-28.063,25.438 -96.023,89.737 -119.503,111.988c-2.052,1.945 -3.238,3.71 -3.741,5.13c-0.617,1.742 -0.453,3.254 0.195,4.526c0.579,1.135 1.62,2.176 3.327,2.862c1.464,0.589 3.644,0.956 6.558,0.921c66.502,-0.792 508.993,-0.761 508.993,-0.761l3.4,0l0,-6.8l-3.4,-0c0,-0 -442.562,-0.031 -509.074,0.762c-0.994,0.012 -2.061,-0.123 -2.854,-0.256Z" style="fill:#8b8f9f;"/><path d="M30.77,703.565c0.026,5.504 5.53,11.525 15.797,11.402c66.501,-0.792 494.465,-0.761 494.465,-0.761l3.4,-0l0,-6.8l-3.4,-0c0,-0 -428.034,-0.031 -494.547,0.762c-3.015,0.036 -5.434,-0.628 -7.078,-1.791c-1.104,-0.78 -1.832,-1.759 -1.837,-2.844l-0.017,-3.4l-6.8,0.032l0.017,3.4Z" style="fill:#8b8f9f;"/><path d="M52.417,713.96c-0,0 -0.003,64.848 0,65.049c0.194,13.571 11.177,22.867 23.192,22.77c66.504,-0.542 321.784,-0.762 321.784,-0.762l3.4,-0.003l-0.006,-6.8l-3.4,0.003c0,-0 -255.319,0.22 -321.834,0.762c-8.47,0.069 -16.2,-6.499 -16.337,-16.067c-0.002,-0.201 0.001,-64.952 0.001,-64.952l-0,-3.4l-6.8,0l-0,3.4Z" style="fill:#8b8f9f;"/><path d="M787.788,713.96c0,0 0.003,64.751 0,64.952c-0.136,9.568 -7.866,16.136 -16.337,16.067c-66.514,-0.542 -374.058,-0.762 -374.058,-0.762l-3.4,-0.003l-0.005,6.8l3.4,0.003c-0,-0 307.503,0.22 374.008,0.762c12.015,0.097 22.998,-9.199 23.192,-22.77c0.003,-0.201 0,-65.049 0,-65.049l-0,-3.4l-6.8,0l0,3.4Z" style="fill:#8b8f9f;"/><path d="M808.341,703.533c-0.006,1.085 -0.734,2.064 -1.838,2.844c-1.644,1.163 -4.063,1.827 -7.078,1.791c-66.518,-0.793 -259.98,-0.762 -259.98,-0.762l-3.4,0l0.001,6.8l3.4,-0c-0,-0 193.401,-0.031 259.898,0.761c10.266,0.123 15.77,-5.898 15.797,-11.402l0.016,-3.4l-6.8,-0.032l-0.016,3.4Z" style="fill:#8b8f9f;"/><path d="M809.388,690.904c-0.792,0.133 -1.859,0.268 -2.853,0.256c-66.518,-0.793 -255.374,-0.762 -255.374,-0.762l-3.4,0l0.001,6.8l3.4,-0c-0,-0 188.795,-0.031 255.292,0.761c2.914,0.035 5.093,-0.332 6.557,-0.921c1.707,-0.686 2.748,-1.727 3.327,-2.862c0.649,-1.272 0.812,-2.784 0.195,-4.526c-0.503,-1.42 -1.688,-3.185 -3.74,-5.13c-16.804,-15.924 -56.395,-53.39 -87.83,-82.725c-1.575,-1.47 -15.069,-14.427 -29.862,-26.931l-2.597,-2.195l-4.389,5.193l2.596,2.195c14.671,12.401 28.051,25.252 29.613,26.709c31.421,29.323 70.995,66.772 87.791,82.69c0.463,0.439 0.916,0.982 1.273,1.448Z" style="fill:#8b8f9f;"/><path d="M502.756,525.823c-4.408,0.175 -9.456,-0.917 -13.125,-2.34c-1.398,-3.773 -2.598,-7.641 -3.375,-11.929l-0.606,-3.345l-6.691,1.211l0.606,3.346c0.949,5.243 2.465,9.916 4.228,14.507l0.502,1.306l1.275,0.575c4.494,2.024 11.463,3.701 17.455,3.464l3.398,-0.135l-0.27,-6.795l-3.397,0.135Z" style="fill:#8b8f9f;"/><path d="M547.883,465.935c1.34,0.917 3.863,2.699 6.268,4.682c19.08,15.728 63.693,59.189 78.929,88.021l1.589,3.006l6.012,-3.177l-1.589,-3.006c-15.58,-29.482 -61.105,-74.008 -80.616,-90.091c-4.224,-3.482 -7.361,-5.676 -8.843,-6.323c-1.364,-0.595 -2.411,-0.487 -3.005,-0.321l-0.569,0.158l-0.482,0.341c-17.711,12.534 -33.427,27.267 -47.884,45.615c-16.924,-7.279 -28.38,-20.978 -35.085,-40.289c13.466,-23.41 27.639,-38.118 42.189,-48.537c18.42,9.695 29.625,22.878 36.889,37.973l1.475,3.063l6.127,-2.949l-1.474,-3.063c-8.099,-16.828 -20.714,-31.472 -41.769,-42.027l-1.803,-0.904l-1.657,1.148c-16.093,11.149 -31.81,27.061 -46.646,53.262l-0.743,1.312l0.473,1.431c7.628,23.081 21.377,38.977 41.904,46.872l2.364,0.909l1.548,-2.005c14.017,-18.166 29.24,-32.737 46.398,-45.101Z" style="fill:#8b8f9f;"/><path d="M504.248,519.117c38.224,42.144 79.676,77.121 124.206,105.266l0.363,0.229l0.408,0.132c8.39,2.71 18.771,3.805 32.179,2.345l1.557,-0.17l0.883,-1.294c13.705,-20.084 23.512,-42.151 26.588,-67.653l0.151,-1.257l-0.706,-1.049c-7.312,-10.858 -16.25,-21.843 -27.092,-32.97c-26.141,-43.718 -45.786,-82.92 -57.92,-116.926l-1.143,-3.202l-6.404,2.285l1.142,3.202c12.29,34.443 32.184,74.172 58.696,118.476l0.206,0.344l0.28,0.286c10.304,10.546 18.851,20.956 25.881,31.251c-3.035,23.293 -11.999,43.565 -24.413,62.076c-11.268,1.071 -20.14,0.184 -27.39,-2.086c-43.89,-27.789 -84.748,-62.301 -122.435,-103.854l-2.285,-2.518l-5.036,4.568l2.284,2.519Z" style="fill:#8b8f9f;"/><path d="M428.758,291.279c-0.109,-1.928 -1.763,-3.405 -3.692,-3.296l-6.989,0.395c-1.929,0.109 -3.406,1.763 -3.297,3.692l0.621,10.982c0.109,1.929 1.763,3.406 3.692,3.297l6.989,-0.395c1.929,-0.109 3.406,-1.763 3.297,-3.692l-0.621,-10.983Z" style="fill:none;stroke:#8b8f9f;stroke-width:6.8px;"/><path d="M482.103,559.454c0.844,-0.236 1.709,0.311 2.702,0.986c1.737,1.18 3.535,3.057 5.345,5.339c6.472,8.158 12.814,21.321 15.451,30.123c0.528,1.762 0.904,3.334 1.08,4.636c0.102,0.751 0.219,1.343 0.08,1.729l-1.15,3.2l6.399,2.301l1.15,-3.2c0.668,-1.857 0.417,-5.738 -1.045,-10.617c-2.837,-9.47 -9.676,-23.622 -16.638,-32.398c-2.813,-3.547 -5.698,-6.239 -8.34,-7.64c-2.425,-1.286 -4.757,-1.597 -6.862,-1.009l-3.275,0.914l1.828,6.549l3.275,-0.913Z" style="fill:#8b8f9f;"/><path d="M484.283,611.802c-0.783,0.47 -2.281,1.315 -3.735,1.853c-6.427,2.378 -17.326,4.252 -27.954,2.29c0.004,-0.632 0.034,-1.325 0.114,-2c0.058,-0.49 0.265,-1.23 0.356,-1.541c0.758,-0.356 2.052,-0.609 3.501,-0.895c4.951,-0.979 11.532,-1.523 11.532,-1.523l4.851,-0.404l-2.048,-4.416c-0,0 -1.913,-4.112 -4.112,-7.293c-1.155,-1.67 -2.428,-3.08 -3.557,-3.842c-0.796,-0.538 -1.921,-0.942 -3.365,-1.036c-1.31,-0.084 -3.017,0.079 -4.97,0.48c-6.492,1.33 -16.224,5.315 -21.992,8.396l-2.999,1.602l3.204,5.998l2.999,-1.602c5.289,-2.825 14.2,-6.513 20.153,-7.733c1.284,-0.263 2.962,-0.309 3.369,-0.315c0.786,0.637 1.573,1.873 2.332,3.092c0.171,0.275 0.338,0.551 0.5,0.826c-2.246,0.271 -4.898,0.641 -7.216,1.099c-2.73,0.54 -5.042,1.287 -6.171,2.019c-1.332,0.864 -2.396,2.577 -2.869,4.758c-0.688,3.179 -0.275,7.449 -0.275,7.449l0.244,2.388l2.331,0.569c12.865,3.143 26.571,0.909 34.402,-1.989c4.185,-1.548 6.838,-3.553 7.673,-4.943c0.695,-1.158 0.974,-3.381 -0.05,-6.264c-2.312,-6.51 -11.126,-19.294 -16.856,-25.879l-2.232,-2.565l-5.13,4.464l2.232,2.565c4.646,5.34 11.53,15.045 14.612,21.432c0.474,0.984 0.896,2.23 1.126,2.96Z" style="fill:#8b8f9f;"/><path d="M495.184,602.632c-0.027,0.228 -0.111,0.885 -0.223,1.271c-0.478,1.646 -1.353,3.204 -1.353,3.204l-1.662,2.966l5.932,3.324l1.662,-2.966c0,0 1.736,-3.138 2.271,-5.952c0.356,-1.874 0.156,-3.639 -0.549,-4.91c-3.423,-6.17 -13.751,-24.533 -22.111,-35.937c-4.076,-5.559 -7.952,-9.457 -10.415,-10.391c-1.124,-0.427 -2.701,-0.589 -4.619,-0.347c-2.05,0.258 -4.641,0.966 -7.457,1.959c-10.135,3.574 -23.497,10.864 -23.497,10.864l-2.984,1.63l3.26,5.968l2.984,-1.63c-0,-0 12.791,-6.996 22.498,-10.419c1.938,-0.683 3.741,-1.222 5.269,-1.503c0.907,-0.167 1.643,-0.351 2.133,-0.165c0.544,0.206 1.142,0.762 1.87,1.467c1.614,1.565 3.479,3.867 5.474,6.588c8.086,11.03 18.039,28.714 21.517,34.979Z" style="fill:#8b8f9f;"/><path d="M377.029,563.613c10.685,-2.286 30.194,-5.715 44.155,-4.446c0.443,22.806 -2.298,44.835 -7.468,63.806c-16.358,0.534 -29.933,-3.886 -41.34,-7.202l-3.265,-0.949l-1.898,6.53l3.265,0.949c12.59,3.659 27.707,8.481 46.061,7.345l2.396,-0.148l0.662,-2.307c5.998,-20.901 9.109,-45.617 8.31,-71.16l-0.089,-2.839l-2.81,-0.417c-14.753,-2.193 -37.388,1.618 -49.401,4.188l-3.325,0.712l1.422,6.649l3.325,-0.711Z" style="fill:#8b8f9f;"/><circle cx="401.651" cy="604.166" r="7.89" style="fill:none;stroke:#8b8f9f;stroke-width:6.8px;"/><path d="M511.034,422.974c2.073,-2.51 6.482,-2.298 9.84,0.474c3.358,2.773 4.401,7.062 2.328,9.573c-2.073,2.51 -6.482,2.298 -9.84,-0.474c-3.358,-2.773 -4.401,-7.062 -2.328,-9.573Z" style="fill:none;stroke:#8b8f9f;stroke-width:6.8px;"/><circle cx="429.23" cy="524.348" r="7.89" style="fill:none;stroke:#8b8f9f;stroke-width:6.8px;"/><path d="M294.747,541.63c8.612,-17.302 18.689,-33.917 28.152,-46.692l2.024,-2.732l-5.464,-4.048l-2.024,2.732c-9.67,13.055 -19.976,30.029 -28.775,47.71l-1.515,3.044l6.087,3.029l1.515,-3.043Z" style="fill:#8b8f9f;"/><path d="M326.788,492.821c-2.106,6.818 -5.234,37.773 -3.006,52.326l0.514,3.361l6.722,-1.029l-0.515,-3.361c-2.117,-13.828 0.831,-43.422 2.809,-49.377c0.252,-0.76 0.372,-1.86 0.194,-3.242c-0.245,-1.908 -1.087,-4.716 -2.286,-7.893c-3.667,-9.722 -10.646,-23.305 -10.646,-23.305l-1.555,-3.023l-6.048,3.109l1.555,3.024c0,-0 6.776,13.168 10.332,22.595c1.078,2.859 1.845,6.411 1.93,6.815Z" style="fill:#8b8f9f;"/><path d="M249.056,537.265c7.656,5.612 13.345,7.63 21.233,8.418l3.383,0.337l0.676,-6.766l-3.383,-0.338c-6.651,-0.664 -11.433,-2.403 -17.889,-7.135l-2.742,-2.01l-4.02,5.484l2.742,2.01Z" style="fill:#8b8f9f;"/><path d="M228.976,615.398c44.799,8.006 90.406,9.375 134.255,5.679l2.318,-0.195l0.657,-2.231c6.011,-20.378 6.986,-39.668 4.905,-58.302l-0.279,-2.5l-2.472,-0.464c-28.065,-5.269 -55.228,-8.423 -81.699,-9.954c-4.585,-8.65 -6.846,-18.875 -7.452,-30.251l-0.181,-3.396l-6.79,0.362l0.181,3.395c0.705,13.244 3.556,25.037 9.231,34.878l0.92,1.595l1.838,0.101c25.996,1.43 52.663,4.434 80.205,9.491c1.563,16.316 0.62,33.175 -4.29,50.887c-42.553,3.404 -86.736,1.969 -130.15,-5.789l-3.347,-0.598l-1.197,6.694l3.347,0.598Z" style="fill:#8b8f9f;"/><path d="M219.396,605.495c-9.796,-4.215 -16.945,-14.575 -20.734,-23.84c-2.379,-5.819 -3.536,-11.176 -2.75,-14.188c3.74,-14.345 43.585,-71.938 43.585,-71.938l0.279,-0.405l0.153,-0.468c-0,0 13.643,-41.765 30.378,-73.309c6.95,-13.101 14.359,-24.449 21.603,-29.946c11.822,-8.973 23.812,-8.667 35.292,-7.609c8.436,0.778 16.64,1.953 24.409,0.928c8.036,-1.06 15.751,-7 23.416,-12.639c6.456,-4.75 12.822,-9.395 19.752,-8.678l3.382,0.35l0.7,-6.764l-3.382,-0.35c-8.49,-0.879 -16.573,4.146 -24.481,9.964c-6.698,4.927 -13.255,10.449 -20.277,11.375c-9.222,1.217 -19.085,-0.951 -29.222,-1.412c-11.077,-0.505 -22.433,0.867 -33.7,9.418c-7.816,5.932 -15.999,18.04 -23.499,32.176c-15.939,30.043 -29.122,69.22 -30.681,73.917c-3.58,5.238 -40.629,59.645 -44.287,73.675c-1.018,3.902 -0.047,10.938 3.036,18.477c4.405,10.771 12.951,22.612 24.34,27.513l3.123,1.344l2.688,-6.247l-3.123,-1.344Z" style="fill:#8b8f9f;"/><path d="M407.278,282.244c1.708,-0.346 5.407,-1.055 9.099,-1.506c9.986,-1.219 24.203,-2.31 32.753,-2.406c1.807,-0.02 3.685,0.085 4.817,0.164c1.816,7.359 2.592,32.132 2.592,32.132l0.116,3.398l6.796,-0.232l-0.116,-3.398c-0,-0 -0.764,-21.986 -2.371,-31.418c-0.426,-2.497 -1.03,-4.29 -1.548,-5.092c-0.514,-0.797 -1.124,-1.25 -1.662,-1.512c-0.74,-0.361 -2.575,-0.737 -5.232,-0.818c-7.888,-0.241 -25.263,1.003 -36.969,2.432c-5.253,0.642 -9.41,1.35 -11.233,1.949c-1.114,0.366 -1.803,0.851 -2.155,1.19c-0.517,0.498 -1.129,1.418 -1.465,2.875c-0.35,1.522 -0.528,4.134 -0.514,7.482c0.073,17.254 4.703,56.095 4.703,56.095l0.403,3.376l6.752,-0.806l-0.403,-3.376c0,-0 -4.583,-38.303 -4.655,-55.318c-0.008,-1.952 0.172,-4.05 0.292,-5.211Z" style="fill:#8b8f9f;"/><path d="M454.124,374.862c-11.929,-7.527 -42.955,-22.219 -42.955,-22.219l-3.712,-1.749l-1.029,3.973c0,0 -1.345,5.313 -1.208,9.012c0.108,2.913 1.352,5.012 2.896,5.838c9.994,5.346 25.597,15.7 31.945,19.975c-8.255,0.277 -18.364,-4.994 -24.665,-8.387c-1.579,-0.85 -3.827,-1.172 -6.258,-0.894c-3.009,0.344 -6.317,1.556 -8.481,2.996c-2.665,1.774 -3.681,4.175 -3.404,6.011c0.332,2.199 2.385,5.035 6.363,7.659c6.51,4.296 18.602,9.001 32.336,12.278c-0.516,9.844 1.21,18.602 5.269,26.206l0.429,0.805l18.919,11.762l3.59,-5.775l-17.35,-10.787c-3.555,-7.08 -4.752,-15.296 -3.865,-24.547l0.287,-2.998l-2.941,-0.647c-12.002,-2.643 -22.946,-6.451 -29.943,-10.208c-2.13,-1.144 -3.87,-2.265 -5.104,-3.352c-0.299,-0.263 -0.585,-0.487 -0.808,-0.702c0.314,-0.221 0.693,-0.467 1.019,-0.626c1.472,-0.722 3.328,-1.265 4.974,-1.364c0.671,-0.041 1.298,-0.07 1.744,0.17c7.857,4.231 21.005,10.463 30.882,8.943l1.642,-0.253l4.596,-8.233l-2.562,-1.753c0,-0 -21.524,-14.721 -34.641,-21.86c-0.037,-0.435 -0.085,-1.159 -0.055,-1.668c0.035,-0.596 0.1,-1.209 0.181,-1.803c9.943,4.745 35.623,17.205 41.024,21.855c1.29,1.11 2.481,1.306 3.379,1.243c1.311,-0.091 2.515,-0.726 3.34,-2.183c0.568,-1.002 0.963,-2.956 0.968,-5.246c0.01,-3.846 -0.748,-8.883 -0.748,-8.883l-0.197,-1.303l-1.024,-0.829c-12.228,-9.91 -23.809,-18.804 -35.791,-24.137c-0.072,-0.231 -0.221,-0.73 -0.261,-1.054c-0.032,-0.254 -0.054,-0.512 -0.067,-0.768c12.983,1.643 20.41,4.368 35.135,17.544l2.534,2.267l4.534,-5.067l-2.533,-2.268c-17.573,-15.723 -25.703,-17.828 -42.467,-19.647l-3.185,-0.345l-0.534,3.158c-0,-0 -0.697,4.377 0.137,7.566c0.577,2.206 1.838,3.899 3.643,4.692c11.256,4.947 22.096,13.254 33.541,22.506c0.17,1.256 0.404,3.237 0.481,5.096Z" style="fill:#8b8f9f;"/><path d="M392.728,359.996c-8.572,4.182 -16.518,8.963 -23.184,21.667l-0.477,0.908l0.105,1.02c1.993,19.354 11.69,38.66 32.26,46.174l2.751,1.006l16.865,-30.967l-5.972,-3.253l-14.012,25.729c-15.72,-7.062 -23.159,-22.691 -25.014,-38.36c5.678,-10.332 12.438,-14.29 19.659,-17.812l3.056,-1.49l-2.981,-6.112l-3.056,1.49Z" style="fill:#8b8f9f;"/><path d="M415.028,401.89l5.375,27.176l6.671,-1.319l-5.376,-27.177l-6.67,1.32Z" style="fill:#8b8f9f;"/><path d="M393.444,360.979c0.021,3.692 -2.04,13.411 -1.662,16.511l0.411,3.375l6.75,-0.823l-0.411,-3.375c-0.361,-2.955 1.732,-12.207 1.712,-15.726l-0.019,-3.4l-6.8,0.038l0.019,3.4Z" style="fill:#8b8f9f;"/><path d="M450.645,235.791l-11.444,12.592l15.404,-7.228c26.775,-12.562 51.873,-8.488 78.367,9.44l6.967,4.714l-1.734,-8.231c-1.491,-7.077 -4.414,-13.173 -8.922,-18.195c4.567,-4.127 9.511,-10.834 11.219,-15.277l3.205,-8.34l-7.939,4.099c-10.373,5.355 -22.698,6.372 -31.776,6.829c-12.116,0.61 -38.718,3.499 -53.347,19.597Zm26.443,-8.283c10.404,-3.363 20.981,-4.207 27.246,-4.523c7.127,-0.359 16.077,-1.11 24.749,-3.689c-2.167,2.682 -4.622,5.108 -6.685,6.345l-3.96,2.376l3.444,3.076c2.809,2.508 5.017,5.42 6.679,8.705c-17.345,-10.043 -34.256,-14.325 -51.47,-12.291l-0.003,0.001Z" style="fill:#8b8f9f;"/><path d="M454.727,225.932c6.977,-6.489 18.129,-11.284 27.941,-12.035l3.39,-0.26l-0.519,-6.78l-3.39,0.26c-11.261,0.862 -24.047,6.389 -32.053,13.836l-2.49,2.316l4.631,4.979l2.49,-2.316Z" style="fill:#8b8f9f;"/><path d="M353.947,300.945l7.315,-5.232c0,0 4.564,6.512 4.564,6.512l14,-6.997l-3.04,-6.083l-8.756,4.376c0,0 -5.139,-7.332 -5.139,-7.332l-12.9,9.225l3.956,5.531Z" style="fill:#8b8f9f;"/><path d="M327.876,258.887c1.749,26.089 5.557,50.994 11.993,75.196c-18.734,-21.153 -32.46,-52.162 -43.485,-88.532l-0.987,-3.254l-6.507,1.973l0.986,3.254c13.171,43.447 30.322,79.357 54.638,100.823l9.052,7.991l-3.552,-11.541c-8.525,-27.691 -13.332,-56.224 -15.353,-86.365l-0.228,-3.393l-6.785,0.455l0.228,3.393Z" style="fill:#8b8f9f;"/><path d="M501.078,131.672c12.784,36.255 40,59.037 77.286,74.65c-11.843,3.532 -21.67,6.323 -30.781,6.526l-3.54,0.079l0.223,3.533c0.562,8.949 -0.659,14.506 -2.365,20.594l-0.917,3.274l6.548,1.835l0.917,-3.274c1.665,-5.944 2.899,-11.433 2.746,-19.429c11.007,-0.924 23.205,-4.938 38.528,-9.419l9.825,-2.873l-9.591,-3.576c-39.948,-14.894 -69.332,-36.933 -82.466,-74.182l-1.131,-3.206l-6.413,2.261l1.131,3.207Z" style="fill:#8b8f9f;"/><path d="M454.279,157.698c8.602,6.043 24.882,11.673 39.152,10.826l3.394,-0.202l-0.403,-6.788l-3.394,0.202c-12.695,0.753 -27.187,-4.226 -34.84,-9.602l-2.782,-1.955l-3.91,5.564l2.783,1.955Z" style="fill:#8b8f9f;"/></g></svg>