<?xml version="1.0" encoding="UTF-8" standalone="no"?><!DOCTYPE svg PUBLIC "-//W3C//DTD SVG 1.1//EN" "http://www.w3.org/Graphics/SVG/1.1/DTD/svg11.dtd"><svg width="848px" height="1305px" version="1.1" xmlns="http://www.w3.org/2000/svg" xmlns:xlink="http://www.w3.org/1999/xlink" xml:space="preserve" xmlns:serif="http://www.serif.com/" style="fill-rule:evenodd;clip-rule:evenodd;stroke-linecap:square;stroke-miterlimit:10;"><g><path d="M514.601,207.011c-22.842,-5.634 -44.75,-18.015 -56.807,-32.421l-7.934,-9.479l1.97,12.203c2.068,12.814 7.101,25.388 16.713,37.579c-62.797,-2.901 -85.651,-64.624 -95.343,-83.915l-4.135,-8.229l-2.205,8.942c-2.837,11.51 -2.831,25.419 -2.116,34.797c-2.294,-1.093 -4.757,-2.583 -7.128,-4.134c-6.526,-4.267 -12.305,-9.158 -12.305,-9.158l-6.457,-5.465l0.879,8.414c3.504,33.542 16.858,61.521 38.878,84.606c-26.498,-3.135 -46.933,-11.946 -63.853,-24.069l-2.764,-1.98l-3.96,5.528l2.763,1.98c19.771,14.165 44.101,24.07 76.725,26.177l9.504,0.614l-6.966,-6.494c-22.91,-21.357 -37.467,-47.431 -42.487,-78.893c2.876,2.138 6.375,4.583 9.85,6.629c3.795,2.234 7.588,3.972 10.612,4.536l4.598,0.857l-0.603,-4.638c-0.789,-6.069 -1.41,-16.852 -0.303,-27.405c13.042,27.132 40.978,79.822 104.332,78.168l7.481,-0.195l-5.068,-5.506c-8.461,-9.193 -13.888,-18.633 -17.099,-28.259c13.306,11.488 32.106,21.004 51.599,25.812l3.301,0.815l1.629,-6.602l-3.301,-0.815Z" style="fill:#8b8f9f;"/><path d="M304.877,100.064c-36.04,29.516 -53.263,96.944 -34.106,153.795c1.253,31.016 10.076,60.32 22.121,79.985c8.494,13.868 18.716,22.963 28.943,25.19l5.989,1.305l-2.064,-5.772c-2.534,-7.085 -5.482,-17.746 -4.91,-26.076l0.233,-3.392l-6.784,-0.466l-0.233,3.392c-0.467,6.805 1.119,15.031 3.109,22.02c-6.595,-3.621 -12.875,-10.595 -18.484,-19.753c-11.61,-18.955 -20.015,-47.273 -21.144,-77.188l-0.019,-0.497l-0.161,-0.471c-18.461,-54.16 -2.551,-118.663 31.818,-146.811l2.631,-2.155l-4.309,-5.26l-2.63,2.154Z" style="fill:#8b8f9f;"/><path d="M318.914,95.377c24.231,-31.654 55.986,-48.355 95.763,-49.114l0.613,-0.012l0.57,-0.225c32.747,-12.919 62.944,-11.167 90.407,6.393l2.864,1.831l3.663,-5.729l-2.864,-1.831c-29.178,-18.657 -61.233,-20.768 -95.997,-7.213c-41.671,0.959 -74.982,18.539 -100.419,51.767l-2.067,2.7l5.4,4.133l2.067,-2.7Z" style="fill:#8b8f9f;"/><path d="M517.386,59.275c77.083,55.176 100.678,133.302 76.406,231.992l-0.812,3.302l6.603,1.624l0.812,-3.302c25.03,-101.769 0.437,-182.248 -79.051,-239.145l-2.765,-1.979l-3.958,5.529l2.765,1.979Z" style="fill:#8b8f9f;"/><path d="M337.274,108.856l-7.638,12.962l12.469,-8.418c51.715,-34.911 119.234,-40.607 172.89,-2.075l10.104,7.256l-5.008,-11.387c-10.171,-23.121 -34.218,-39.951 -62.457,-46.699c-42.027,-10.042 -93.16,2.199 -120.36,48.361Zm15.019,-9.649c26.77,-32.42 68.673,-40.482 103.761,-32.098c20.839,4.979 39.326,15.744 50.693,30.77c-48.956,-28.518 -106.661,-25.01 -154.453,1.327l-0.001,0.001Z" style="fill:#8b8f9f;"/><circle cx="534.903" cy="114.717" r="12.871" style="fill:none;stroke:#8b8f9f;stroke-width:6.8px;"/><path d="M545.01,321.732c-2.83,11.281 -7.577,23.162 -14.127,35.593l-4.335,8.227l8.619,-3.491c21.336,-8.641 42.064,-30.641 60.227,-57.566l1.902,-2.818l-5.637,-3.803l-1.902,2.818c-14.781,21.911 -31.181,40.569 -48.318,50.672c4.516,-9.675 7.917,-19.01 10.166,-27.978l0.828,-3.297l-6.596,-1.655l-0.827,3.298Z" style="fill:#8b8f9f;"/><path d="M534.161,269.227c-3.972,27.862 -13.073,55.77 -25.661,83.716l-6.344,14.083l11.671,-10.118c31.38,-27.205 49.672,-65.803 59.307,-111.889l0.696,-3.328l-6.656,-1.392l-0.696,3.328c-7.998,38.259 -22.05,71.24 -45.087,96.434c9.391,-23.32 16.187,-46.616 19.502,-69.874l0.48,-3.366l-6.732,-0.96l-0.48,3.366Z" style="fill:#8b8f9f;"/><path d="M332.666,293.046c-0,-0 7.267,13.536 15.314,24.03c3.655,4.768 7.507,8.9 10.926,11.1c11.091,7.134 36.956,17.613 54.388,23.223c7.846,2.526 14.085,4.026 16.752,4.011c3.498,-0.019 14.018,-2.734 26.501,-7.062c18.357,-6.365 41.072,-16.137 51.656,-24.926c13.027,-10.818 28.272,-32.636 32.246,-51.559l0.699,-3.327l-6.655,-1.398l-0.698,3.327c-3.682,17.531 -17.868,37.703 -29.936,47.725c-10.137,8.418 -31.958,17.638 -49.54,23.734c-11.476,3.979 -21.095,6.669 -24.311,6.687c-2.336,0.013 -7.758,-1.473 -14.631,-3.685c-16.912,-5.443 -42.032,-15.547 -52.792,-22.469c-3.94,-2.535 -8.408,-8.168 -12.435,-13.941c-6.35,-9.104 -11.492,-18.685 -11.492,-18.685l-1.608,-2.996l-5.992,3.215l1.608,2.996Z" style="fill:#8b8f9f;"/><path d="M491.533,301.072l7.448,-4.914c0,-0 3.942,5.13 3.942,5.13l13.575,-5.49l-2.549,-6.304l-8.783,3.552c-0,0 -4.647,-6.049 -4.647,-6.049l-12.73,8.399l3.744,5.676Z" style="fill:#8b8f9f;"/><path d="M444.048,324.488c4.682,-1.161 9.635,-2.987 15.041,-5.948l2.981,-1.634l-3.267,-5.963l-2.981,1.633c-4.821,2.641 -9.235,4.276 -13.411,5.312l-3.3,0.818l1.637,6.6l3.3,-0.818Z" style="fill:#8b8f9f;"/><path d="M403.918,370.404c5.985,3.916 19.331,8.334 34.862,4.612l3.307,-0.793l-1.585,-6.613l-3.307,0.793c-13.154,3.153 -24.485,-0.372 -29.554,-3.689l-2.845,-1.862l-3.723,5.69l2.845,1.862Z" style="fill:#8b8f9f;"/><path d="M461.187,361.612c-2.099,1.217 -6.409,3.33 -8.752,3.823l-3.328,0.7l1.4,6.654l3.328,-0.7c2.87,-0.603 8.191,-3.103 10.762,-4.594l2.941,-1.705l-3.41,-5.883l-2.941,1.705Z" style="fill:#8b8f9f;"/><path d="M499.074,563.164l58.767,-0.809l-0.093,-6.8l-58.768,0.809l0.094,6.8Z" style="fill:#8b8f9f;"/><path d="M214.61,974.899c0,-0 15.737,-22.717 20.29,-32.505c1.79,-3.849 3.454,-16.361 4.845,-30.492c1.972,-20.015 3.512,-43.439 5.223,-47.666c0.357,-0.882 2.432,-3.136 5.345,-6.329c13.281,-14.558 43.882,-44.517 43.882,-44.517l2.43,-2.379l-4.758,-4.859l-2.429,2.379c0,-0 -30.786,30.146 -44.149,44.793c-3.75,4.111 -6.164,7.225 -6.624,8.36c-1.492,3.685 -3.07,21.294 -4.708,39.184c-1.551,16.942 -3.129,34.156 -5.223,38.658c-4.415,9.491 -19.711,31.496 -19.711,31.496l-1.938,2.793l5.587,3.877l1.938,-2.793Z" style="fill:#8b8f9f;"/><path d="M225.671,989.246l-5.431,-5.045c14.148,-4.679 51.152,-17.108 57.007,-21.031c3.34,-2.238 37.073,-33.748 59.623,-53.444c9.143,-7.988 16.245,-14.045 18.416,-14.854c6.309,-2.35 118.377,-19.737 133.344,-22.053c33.061,31.339 62.369,63.944 87.428,97.984l0.841,1.142l1.404,0.206c23.44,3.436 43.269,7.159 59.356,11.851c-0.001,0 -12.361,10.288 -12.361,10.288l-2.613,2.175l4.35,5.226l24.519,-20.408l-5.844,-1.911c-17.047,-5.574 -38.777,-9.858 -65.018,-13.742c-25.411,-34.357 -55.109,-67.268 -88.601,-98.898l-1.21,-1.142l-1.645,0.254c0,0 -129.495,20.112 -136.324,22.656c-2.393,0.891 -10.436,7.299 -20.516,16.104c-22.305,19.484 -55.63,50.703 -58.934,52.917c-7.061,4.731 -60.805,22.014 -60.805,22.014l-5.513,1.783l13.899,12.91l4.628,-4.982Z" style="fill:#8b8f9f;"/><path d="M512.669,738.113c0.274,0.411 0.625,0.958 0.863,1.398c0.258,0.479 0.503,0.965 0.724,1.422c-7.582,5.818 -14.127,8.295 -17.794,8.679c-0.476,-0.579 -1.607,-1.995 -2.353,-3.248c-3.97,-6.674 -8.646,-18.484 -9.567,-22.789l-0.711,-3.325l-6.649,1.422l0.711,3.325c1.154,5.398 7.668,21.557 12.289,27.758c1.137,1.526 2.264,2.551 3.184,3.062c0.879,0.488 1.722,0.664 2.481,0.646c4.468,-0.108 14.014,-3.005 24.758,-11.897l1.925,-1.593l-0.946,-2.313c0,0 -2.186,-5.209 -4.052,-7.44c-1.107,-1.323 -2.364,-1.921 -3.301,-2.047c-1.004,-0.137 -2.867,0.143 -4.942,0.825c-1.622,0.533 -3.445,1.267 -4.947,1.907l-1.664,-3.578c3.51,-2.27 10.08,-7.053 13.333,-14.053l1.433,-3.083l-6.167,-2.866l-1.433,3.083c-3.202,6.891 -10.492,10.997 -12.453,12.21c-1.223,0.756 -2.27,2.38 -1.86,4.875c0.523,3.173 4.231,9.606 4.231,9.606l1.579,2.662l2.798,-1.323c0,0 4.07,-1.928 7.272,-2.98c0.382,-0.125 0.858,-0.249 1.258,-0.345Z" style="fill:#8b8f9f;"/><path d="M481.33,744.935c-0.52,0.018 -0.98,-0.261 -1.447,-0.634c-0.897,-0.718 -1.714,-1.798 -2.512,-3.117c-2.966,-4.9 -5.341,-12.748 -7.293,-20.985l-0.784,-3.308l-6.617,1.568l0.784,3.309c2.525,10.653 5.898,20.643 9.969,25.626c2.448,2.996 5.249,4.438 8.137,4.337l3.398,-0.119l-0.237,-6.796l-3.398,0.119Z" style="fill:#8b8f9f;"/><path d="M468.178,744.07c-0.209,-0.275 -1.84,-2.451 -2.989,-4.577c-3.917,-7.243 -8.883,-19.704 -11.238,-28.718c-0.651,-2.493 -1.102,-4.703 -1.242,-6.429c-0.036,-0.447 -0.018,-1.002 0.003,-1.36c8.092,-5.608 19.188,-12.68 24.697,-20.251l2.001,-2.749l-5.498,-4.001l-2.001,2.749c-5.275,7.248 -16.174,13.848 -23.756,19.137c-1.027,0.716 -1.944,2.027 -2.202,4.096c-0.278,2.235 0.241,6.019 1.419,10.527c2.479,9.49 7.711,22.608 11.835,30.234c1.364,2.522 2.643,4.483 3.673,5.644c0.749,0.846 1.472,1.384 2.066,1.684l3.036,1.53l3.061,-6.072l-2.865,-1.444Z" style="fill:#8b8f9f;"/><path d="M442.069,696.09c7.879,-3.462 22.19,-11.354 30.074,-21.464l2.091,-2.681l-5.362,-4.181l-2.091,2.681c-7.551,9.681 -21.658,17.016 -28.521,19.882c-1.389,0.58 -2.667,2.047 -2.961,4.519c-0.486,4.073 1.863,12.742 1.863,12.742l0.925,3.272l6.543,-1.85l-0.925,-3.271c0,-0 -1.157,-4.079 -1.562,-7.559c-0.075,-0.642 -0.082,-1.51 -0.074,-2.09Z" style="fill:#8b8f9f;"/><path d="M591.994,563.189c5.222,-1.626 28.469,-7.802 28.469,-7.802l3.286,-0.873l-1.747,-6.572l-3.286,0.873c0,0 -24.622,6.548 -29.144,8.007c-0.3,0.097 -0.892,0.361 -1.672,0.917c-1.468,1.045 -4.672,3.737 -8.984,7.509c-20.954,18.334 -68.958,62.753 -68.958,62.753l-3.365,3.113l3.956,2.317c12.281,7.192 24.404,15.673 34.973,35.784l1.581,3.01l6.02,-3.163l-1.582,-3.01c-10.232,-19.47 -21.794,-28.822 -33.635,-36.136c11.215,-10.357 47.9,-44.162 65.488,-59.55c4.079,-3.569 7.943,-6.656 8.6,-7.177Z" style="fill:#8b8f9f;"/><path d="M466.275,363.06c1.474,-0.183 3.251,0.153 5.234,0.749c3.569,1.073 7.665,3.034 11.838,5.314c11.188,6.112 22.88,14.412 27.265,15.972c1.646,0.585 4.304,0.665 7.708,0.155c6.309,-0.945 15.833,-3.739 25.82,-6.031c8.173,-1.875 16.667,-3.421 23.84,-3.149c4.225,0.161 7.957,0.921 10.707,2.859c4.538,3.197 12.459,14.538 21.858,29.924c22.601,36.995 52.787,97.203 62.138,129.471l0.354,1.22l1.067,0.69c0,-0 14.689,9.482 24.288,16.883c2.366,1.824 4.414,3.511 5.813,4.882c0.589,0.578 1.064,1.01 1.231,1.373c0.975,2.12 1.25,6.138 1.329,10.702c0.167,9.556 -0.926,21.33 -1.352,25.502c-46.142,30.939 -104.372,59.967 -145.852,74.46l-0.809,0.282l-27.705,30.292c-21.285,-9.497 -35.018,-24.04 -42.902,-42.501c11.246,-7.59 22.554,-15.365 29.516,-22.651l2.349,-2.458l-4.917,-4.698l-2.349,2.458c-7.164,7.499 -19.15,15.475 -30.694,23.257l-2.258,1.522l0.993,2.536c8.588,21.945 24.39,39.074 49.819,49.753l2.209,0.928l29.801,-32.585c42.263,-14.879 101.376,-44.442 147.914,-75.841l1.301,-0.877l0.176,-1.56c0,0 1.772,-15.723 1.559,-27.937c-0.1,-5.741 -0.724,-10.758 -1.95,-13.425c-0.796,-1.731 -4.31,-5.13 -9.07,-8.8c-8.221,-6.338 -20.105,-14.178 -23.689,-16.519c-9.859,-32.951 -39.904,-92.905 -62.507,-129.904c-10.094,-16.523 -18.871,-28.505 -23.744,-31.938c-3.708,-2.612 -8.671,-3.878 -14.366,-4.095c-7.705,-0.293 -16.839,1.302 -25.619,3.317c-8.44,1.936 -16.543,4.247 -22.603,5.454c-3.245,0.647 -5.744,1.133 -7.125,0.642c-4.236,-1.507 -15.474,-9.627 -26.285,-15.533c-8.085,-4.416 -16.031,-7.483 -21.172,-6.843l-3.374,0.421l0.841,6.747l3.374,-0.42Z" style="fill:#8b8f9f;"/><path d="M547.649,554.841c2.781,-8.908 4.174,-19.43 5.055,-33.056l0.22,-3.393l-6.786,-0.439l-0.22,3.393c-0.839,12.968 -2.113,22.99 -4.76,31.469l-1.013,3.245l6.491,2.027l1.013,-3.246Z" style="fill:#8b8f9f;"/><path d="M566.513,552.619c-0.309,-0.555 -2.216,-4.03 -3.73,-7.609c-7.532,-17.801 -20.429,-56.357 -22.669,-63.09c1.444,-4.663 3.694,-9.529 6.862,-13.848l2.011,-2.741l-5.483,-4.022l-2.011,2.741c-3.887,5.298 -6.58,11.308 -8.211,16.985l-0.29,1.01l0.33,0.997c-0,-0 14.862,44.917 23.198,64.618c1.543,3.646 2.889,6.468 3.888,8.083c0.724,1.17 1.424,1.898 1.925,2.261c1.282,0.928 4.378,1.946 8.153,2.702c7.475,1.497 17.86,2.493 17.86,2.493l2.959,0.284l11.28,-48.318l-6.622,-1.546l-9.922,42.5c-3.505,-0.392 -9.473,-1.13 -14.22,-2.081c-2.34,-0.469 -4.356,-0.867 -5.308,-1.419Z" style="fill:#8b8f9f;"/><path d="M512.62,502.58l4.455,-30.422l-6.728,-0.985l-4.455,30.422l6.728,0.985Z" style="fill:#8b8f9f;"/><path d="M576.142,945.136l15.353,-52.75l-11.354,-81.719l-6.735,0.936l11.153,80.278l-14.946,51.354l6.529,1.901Z" style="fill:#8b8f9f;"/><path d="M495.819,862.027l13.156,-53.014l-6.599,-1.638l-13.156,53.014l6.599,1.638Z" style="fill:#8b8f9f;"/><path d="M355.151,882.869l3.274,-54.438l-10.819,-20.872l-6.037,3.13l9.956,19.206l-3.162,52.565l6.788,0.409Z" style="fill:#8b8f9f;"/><path d="M270.389,950.471l-1.506,-71.275l38.963,-58.949l-5.673,-3.749l-40.134,60.719l1.552,73.398l6.798,-0.144Z" style="fill:#8b8f9f;"/><path d="M440.157,1025.49c10.176,70.623 27.582,137.141 50.326,200.629l0.11,0.305l0.165,0.28c12.872,21.745 26.158,36.665 39.703,46.188l0.669,0.47l0.81,0.115c10.719,1.515 19.072,-0.369 25.233,-5.167c6.103,-4.753 10.151,-12.484 11.946,-23.205l0.083,-0.494l-27.52,-216.112c-3.288,-59.33 -13.78,-101.798 -33.209,-121.644l-2.379,-2.43l-4.859,4.758l2.379,2.429c18.713,19.115 28.128,60.217 31.285,117.384l0.007,0.122l27.423,215.351c-1.487,8.451 -4.476,14.693 -9.334,18.476c-4.738,3.69 -11.164,4.924 -19.295,3.907c-12.617,-9.056 -24.921,-23.116 -36.922,-43.329c-22.544,-62.981 -39.798,-128.959 -49.891,-199.003l-0.484,-3.365l-6.731,0.97l0.485,3.365Z" style="fill:#8b8f9f;"/><path d="M533.824,1023.99c-27.024,26.31 -54.986,29.78 -83.164,27.411l-3.388,-0.285l-0.57,6.777l3.388,0.284c29.994,2.522 59.713,-1.309 88.478,-29.314l2.436,-2.372l-4.743,-4.873l-2.437,2.372Z" style="fill:#8b8f9f;"/><path d="M424.003,1026.46c-45.605,-12.417 -62.632,-46.092 -65.072,-91.619l-0.182,-3.395l-6.79,0.364l0.182,3.395c2.613,48.749 21.243,84.52 70.075,97.816l3.281,0.893l1.787,-6.561l-3.281,-0.893Z" style="fill:#8b8f9f;"/><path d="M491.75,891.437c-0,-0 1.943,20.79 -3.803,43.667c-3.771,15.015 -10.849,30.979 -24.177,42.362c-28.112,24.011 -109.441,147.37 -128.754,198.727l-1.197,3.183l6.365,2.393l1.197,-3.182c19.037,-50.623 99.096,-172.283 126.805,-195.95c14.457,-12.348 22.266,-29.589 26.356,-45.876c6.048,-24.077 3.978,-45.961 3.978,-45.961l-0.318,-3.385l-6.77,0.637l0.318,3.385Z" style="fill:#8b8f9f;"/><path d="M385.953,885.095c-50.242,56.33 -89.287,144.657 -111.208,281.181l-0.122,0.759l0.216,0.737c2.628,8.96 5.408,15.77 8.454,20.111c2.506,3.572 5.3,5.635 8.238,6.343c4.859,1.172 25.725,3.402 39.716,-5.097l2.905,-1.765l-3.53,-5.811l-2.906,1.765c-12.179,7.398 -30.361,5.318 -34.591,4.298c-1.584,-0.382 -2.914,-1.712 -4.265,-3.638c-2.654,-3.783 -4.987,-9.69 -7.278,-17.384c21.666,-134.373 59.93,-221.457 109.445,-276.972l2.264,-2.538l-5.075,-4.526l-2.263,2.537Z" style="fill:#8b8f9f;"/><path d="M317.711,980.159c-0,0 -12.828,-3.843 -17.541,-3.444c-1.432,0.122 -7.276,2.004 -14.06,4.345c-9.305,3.211 -20.569,7.275 -23.266,7.558c-4.366,0.46 -30.506,0.968 -30.506,0.968l-3.399,0.068l0.134,6.798l3.399,-0.067c0,0 26.635,-0.535 31.084,-1.004c2.866,-0.302 14.883,-4.481 24.772,-7.893c6.013,-2.075 11.147,-3.89 12.416,-3.997c4.031,-0.342 14.957,3.164 14.957,3.164l3.248,1.005l2.01,-6.496l-3.248,-1.005Z" style="fill:#8b8f9f;"/><path d="M615.099,996.204c0,0 -13.897,-6.405 -23.904,-10.392c-4.692,-1.869 -8.63,-3.169 -10.226,-3.306c-0.896,-0.077 -3.031,0.136 -5.862,0.628c-9.721,1.69 -29.104,6.334 -29.104,6.334l-3.306,0.793l1.585,6.613l3.306,-0.793c0,0 14.654,-3.514 24.748,-5.51c3.897,-0.771 7.026,-1.378 8.051,-1.29c1.303,0.112 4.464,1.323 8.291,2.848c9.869,3.932 23.574,10.25 23.574,10.25l3.088,1.424l2.847,-6.176l-3.088,-1.423Z" style="fill:#8b8f9f;"/><path d="M653.592,973.296c4.298,-21.755 4.901,-45.075 2.22,-69.777l-0.161,-1.483l-1.2,-0.886c-35.279,-26.034 -35.701,-28.998 -52.642,-91.347l-0.892,-3.281l-6.562,1.783l0.892,3.281c17.462,64.267 18.378,67.829 53.962,94.146c2.42,23.427 1.797,45.565 -2.289,66.246l-0.659,3.336l6.672,1.318l0.659,-3.336Z" style="fill:#8b8f9f;"/><path d="M69.217,1216.86l-0,-421.304l-6.8,0l-0,421.304l6.8,0Z" style="fill:#8b8f9f;"/><path d="M765.566,802.266l-3.306,-3.306l0,3.4l-0.08,0l-0,414.504l0.08,0l0,0l3.4,0l3.4,0l0,-417.904l-0.08,0.081l-0,-0.081l-3.192,3.192c0.691,-1.14 3.784,-6.592 -0.13,-6.592c-1.055,0 -0.215,5.887 -0.092,6.706Z" style="fill:#8b8f9f;"/><path d="M84.807,1216.86l0,-421.304l-6.8,0l0,421.304l6.8,0Z" style="fill:#8b8f9f;"/><path d="M781.127,802.237l-3.276,-3.277l-0,3.4l-0.081,0l0,414.504l0.081,0l-0,0l3.4,0l3.4,0l-0,-417.904l-0.081,0.081l0,-0.081l-3.219,3.22c0.592,-1.076 3.464,-6.62 -0.118,-6.62c-2.346,0 -0.428,5.757 -0.106,6.677Zm-3.357,0.123l0,-3.4l0,3.4Z" style="fill:#8b8f9f;"/><path d="M428.041,462.671c0.144,-5.058 1.551,-10.891 4.005,-17.419l1.196,-3.182l-6.365,-2.393l-1.196,3.182c-2.762,7.346 -4.275,13.925 -4.438,19.617l-0.097,3.399l6.797,0.195l0.098,-3.399Z" style="fill:#8b8f9f;"/><path d="M445.846,466.339c-4.479,-5.341 -10.465,-15.131 -12.768,-22.944l-0.962,-3.261l-6.522,1.923l0.961,3.261c2.547,8.639 9.128,19.484 14.08,25.39l2.185,2.605l5.21,-4.369l-2.184,-2.605Z" style="fill:#8b8f9f;"/><path d="M432.911,503.81c-1.024,-6.141 -1.018,-16.604 -0.337,-27.792l0.207,-3.393l-6.787,-0.413l-0.207,3.393c-0.718,11.804 -0.663,22.843 0.416,29.323l0.559,3.354l6.708,-1.118l-0.559,-3.354Z" style="fill:#8b8f9f;"/><path d="M429.885,436.339c-1.774,-1.565 -3.084,-2.752 -3.505,-3.149l-2.472,-2.334l-4.668,4.945l2.472,2.334c0.445,0.42 1.827,1.663 3.701,3.303c-0.806,0.908 -1.611,1.805 -2.405,2.674c-2.409,2.637 -4.701,5.007 -6.579,6.573c-0.258,0.215 -0.548,0.431 -0.82,0.624c-0.215,-0.487 -0.45,-1.08 -0.591,-1.608c-0.901,-3.382 -1.223,-8.166 -0.869,-12.241c0.205,-2.357 0.574,-4.467 1.348,-5.737l1.769,-2.904l-5.807,-3.538l-1.769,2.903c-1.18,1.938 -2.003,5.091 -2.316,8.687c-0.421,4.855 0,10.551 1.073,14.581c0.56,2.099 1.328,3.799 2.171,4.914c1.024,1.355 2.255,2.073 3.489,2.305c0.97,0.183 2.291,0.053 3.801,-0.749c1.681,-0.893 4.031,-2.894 6.626,-5.525c1.893,-1.918 3.958,-4.196 6.02,-6.537c3.74,3.16 7.828,6.473 10.516,8.269c1.692,1.13 3.077,1.714 3.817,1.836c0.92,0.153 1.651,-0.012 2.197,-0.248c0.871,-0.376 2.109,-1.431 2.627,-3.595c0.725,-3.034 0.573,-10.372 -0.445,-16.302c-0.665,-3.875 -1.793,-7.157 -3.008,-8.692c-1.368,-1.731 -3.025,-2.237 -4.63,-1.962c-0.67,0.114 -1.979,0.703 -3.48,2.102c-1.91,1.78 -4.928,5.243 -8.263,9.071Zm11.739,-2.986c-1.732,1.766 -4.071,4.456 -6.631,7.412c2.917,2.478 6.021,5.02 8.385,6.725l0,-0.015c0.068,-3.045 -0.221,-7.051 -0.814,-10.505c-0.204,-1.189 -0.592,-2.539 -0.94,-3.617Z" style="fill:#8b8f9f;"/><path d="M38.671,690.904c0.357,-0.466 0.81,-1.009 1.273,-1.448c23.459,-22.231 91.356,-86.471 119.393,-111.885c5.583,-5.061 10.579,-9.25 11.391,-9.927c3.972,-1.156 12.015,-0.985 12.015,-0.985l3.4,0.045l0.09,-6.8l-3.4,-0.045c0,0 -10.093,-0.065 -14.614,1.446c-0.293,0.098 -0.957,0.41 -1.857,1.096c-1.778,1.356 -5.875,4.949 -11.592,10.131c-28.063,25.438 -96.023,89.737 -119.503,111.988c-2.052,1.945 -3.238,3.71 -3.741,5.13c-0.617,1.742 -0.453,3.254 0.195,4.526c0.579,1.135 1.62,2.176 3.327,2.862c1.464,0.589 3.644,0.956 6.558,0.921c66.5,-0.792 384.977,-0.761 384.977,-0.761l3.4,0l0,-6.8l-3.4,-0c0,-0 -318.544,-0.031 -385.058,0.762c-0.994,0.012 -2.061,-0.123 -2.854,-0.256Z" style="fill:#8b8f9f;"/><path d="M30.77,703.565c0.026,5.504 5.53,11.525 15.797,11.402c66.499,-0.792 382.496,-0.761 382.496,-0.761l3.4,0l0.001,-6.8l-3.4,-0c-0,-0 -316.064,-0.031 -382.579,0.762c-3.015,0.036 -5.434,-0.628 -7.078,-1.791c-1.104,-0.78 -1.832,-1.759 -1.837,-2.844l-0.017,-3.4l-6.8,0.032l0.017,3.4Z" style="fill:#8b8f9f;"/><path d="M52.417,713.96c-0,0 -0.003,64.848 0,65.049c0.194,13.571 11.177,22.867 23.192,22.77c66.504,-0.542 321.784,-0.762 321.784,-0.762l3.4,-0.003l-0.006,-6.8l-3.4,0.003c0,-0 -255.319,0.22 -321.834,0.762c-8.47,0.069 -16.2,-6.499 -16.337,-16.067c-0.002,-0.201 0.001,-64.952 0.001,-64.952l-0,-3.4l-6.8,0l-0,3.4Z" style="fill:#8b8f9f;"/><path d="M787.788,713.96c0,0 0.003,64.751 0,64.952c-0.136,9.568 -7.866,16.136 -16.337,16.067c-66.514,-0.542 -374.058,-0.762 -374.058,-0.762l-3.4,-0.003l-0.005,6.8l3.4,0.003c-0,-0 307.503,0.22 374.008,0.762c12.015,0.097 22.998,-9.199 23.192,-22.77c0.003,-0.201 0,-65.049 0,-65.049l-0,-3.4l-6.8,0l0,3.4Z" style="fill:#8b8f9f;"/><path d="M808.341,703.533c-0.006,1.085 -0.734,2.064 -1.838,2.844c-1.644,1.163 -4.063,1.827 -7.078,1.791c-66.518,-0.793 -259.98,-0.762 -259.98,-0.762l-3.4,0l0.001,6.8l3.4,-0c-0,-0 193.401,-0.031 259.898,0.761c10.266,0.123 15.77,-5.898 15.797,-11.402l0.016,-3.4l-6.8,-0.032l-0.016,3.4Z" style="fill:#8b8f9f;"/><path d="M809.388,690.904c-0.792,0.133 -1.859,0.268 -2.853,0.256c-66.518,-0.793 -255.374,-0.762 -255.374,-0.762l-3.4,0l0.001,6.8l3.4,-0c-0,-0 188.795,-0.031 255.292,0.761c2.914,0.035 5.093,-0.332 6.557,-0.921c1.707,-0.686 2.748,-1.727 3.327,-2.862c0.649,-1.272 0.812,-2.784 0.195,-4.526c-0.503,-1.42 -1.688,-3.185 -3.74,-5.13c-18.893,-17.904 -66.59,-63.038 -99.117,-93.233l-2.492,-2.313l-4.626,4.984l2.492,2.313c32.509,30.179 80.182,75.29 99.065,93.185c0.463,0.439 0.916,0.982 1.273,1.448Z" style="fill:#8b8f9f;"/><path d="M479.261,493.337l-2.36,0.987l0.294,2.541c1.131,9.752 2.989,19.737 6.551,30.277l0.516,1.527l1.509,0.567c10.344,3.889 20.076,4.187 32.719,2.655l2.351,-0.285l0.548,-2.303c2.91,-12.226 2.54,-25.417 2.166,-38.465l-0.084,-2.918l-2.897,-0.359c-13.407,-1.662 -25.919,-0.664 -41.313,5.776Zm5.004,5.315c11.94,-4.618 22.054,-5.625 32.577,-4.656c0.299,10.652 0.463,21.346 -1.56,31.415c-9.661,1.011 -17.492,0.754 -25.607,-1.999c-2.768,-8.566 -4.372,-16.756 -5.41,-24.76l0,-0Z" style="fill:#8b8f9f;"/><path d="M133.188,617.803c-0.493,0.602 -1.267,2.305 -1.898,4.919c-1.835,7.596 -4.196,24.988 -4.782,36.985c-0.232,4.757 -0.167,8.711 0.253,11.015c0.346,1.896 1.08,3.104 1.72,3.709c1.093,1.034 3.863,2.137 7.859,2.721c7.214,1.055 19.176,1.217 29.514,0.632c7.031,-0.399 13.321,-1.156 16.952,-2.164c2.445,-0.679 3.99,-1.696 4.66,-2.529c0.585,-0.727 1.154,-1.982 1.403,-3.771c0.347,-2.485 0.222,-6.522 -0.296,-11.315c-1.141,-10.577 -4.111,-25.055 -7.018,-33.921c-1.475,-4.498 -3.142,-7.677 -4.417,-8.847c-0.944,-0.866 -2.774,-1.697 -5.346,-2.12c-4.176,-0.685 -10.869,-0.635 -17.44,-0.13c-6.516,0.501 -12.909,1.439 -16.564,2.44c-2.491,0.682 -4.037,1.691 -4.6,2.376Zm39.433,2.53c0.174,0.205 0.327,0.531 0.526,0.917c0.63,1.224 1.281,2.925 1.946,4.953c2.788,8.502 5.625,22.389 6.72,32.532c0.348,3.229 0.522,6.065 0.44,8.188c-0.024,0.604 -0.125,1.31 -0.199,1.757c-0.562,0.198 -1.589,0.54 -2.506,0.735c-3.446,0.735 -8.513,1.264 -14.078,1.579c-9.859,0.559 -21.266,0.436 -28.146,-0.57c-1.476,-0.216 -3.088,-0.671 -3.85,-0.901c-0.068,-0.377 -0.152,-0.91 -0.192,-1.389c-0.168,-2.049 -0.14,-4.862 0.018,-8.095c0.497,-10.165 2.301,-24.331 3.935,-32.641c0.392,-1.994 0.95,-4.012 1.227,-4.972c1.982,-0.443 9.948,-2.162 16.412,-2.659c5.155,-0.396 10.392,-0.519 14.19,-0.147c1.503,0.147 3.277,0.634 3.557,0.713Z" style="fill:#8b8f9f;"/><path d="M173.207,648.516c-0.276,-1.912 -2.052,-3.24 -3.964,-2.964l-6.928,1.001c-1.912,0.277 -3.24,2.053 -2.964,3.965l1.573,10.887c0.277,1.912 2.053,3.24 3.965,2.963l6.928,-1.001c1.912,-0.276 3.24,-2.052 2.963,-3.964l-1.573,-10.887Z" style="fill:none;stroke:#8b8f9f;stroke-width:6.8px;"/><path d="M482.103,559.454c0.844,-0.236 1.709,0.311 2.702,0.986c1.737,1.18 3.535,3.057 5.345,5.339c6.472,8.158 12.814,21.321 15.451,30.123c0.528,1.762 0.904,3.334 1.08,4.636c0.102,0.751 0.219,1.343 0.08,1.729l-1.15,3.2l6.399,2.301l1.15,-3.2c0.668,-1.857 0.417,-5.738 -1.045,-10.617c-2.837,-9.47 -9.676,-23.622 -16.638,-32.398c-2.813,-3.547 -5.698,-6.239 -8.34,-7.64c-2.425,-1.286 -4.757,-1.597 -6.862,-1.009l-3.275,0.914l1.828,6.549l3.275,-0.913Z" style="fill:#8b8f9f;"/><path d="M484.283,611.802c-0.783,0.47 -2.281,1.315 -3.735,1.853c-6.427,2.378 -17.326,4.252 -27.954,2.29c0.004,-0.632 0.034,-1.325 0.114,-2c0.058,-0.49 0.265,-1.23 0.356,-1.541c0.758,-0.356 2.052,-0.609 3.501,-0.895c4.951,-0.979 11.532,-1.523 11.532,-1.523l4.851,-0.404l-2.048,-4.416c-0,0 -1.913,-4.112 -4.112,-7.293c-1.155,-1.67 -2.428,-3.08 -3.557,-3.842c-0.796,-0.538 -1.921,-0.942 -3.365,-1.036c-1.31,-0.084 -3.017,0.079 -4.97,0.48c-6.492,1.33 -16.224,5.315 -21.992,8.396l-2.999,1.602l3.204,5.998l2.999,-1.602c5.289,-2.825 14.2,-6.513 20.153,-7.733c1.284,-0.263 2.962,-0.309 3.369,-0.315c0.786,0.637 1.573,1.873 2.332,3.092c0.171,0.275 0.338,0.551 0.5,0.826c-2.246,0.271 -4.898,0.641 -7.216,1.099c-2.73,0.54 -5.042,1.287 -6.171,2.019c-1.332,0.864 -2.396,2.577 -2.869,4.758c-0.688,3.179 -0.275,7.449 -0.275,7.449l0.244,2.388l2.331,0.569c12.865,3.143 26.571,0.909 34.402,-1.989c4.185,-1.548 6.838,-3.553 7.673,-4.943c0.695,-1.158 0.974,-3.381 -0.05,-6.264c-2.312,-6.51 -11.126,-19.294 -16.856,-25.879l-2.232,-2.565l-5.13,4.464l2.232,2.565c4.646,5.34 11.53,15.045 14.612,21.432c0.474,0.984 0.896,2.23 1.126,2.96Z" style="fill:#8b8f9f;"/><path d="M495.184,602.632c-0.027,0.228 -0.111,0.885 -0.223,1.271c-0.478,1.646 -1.353,3.204 -1.353,3.204l-1.662,2.966l5.932,3.324l1.662,-2.966c0,0 1.736,-3.138 2.271,-5.952c0.356,-1.874 0.156,-3.639 -0.549,-4.91c-3.423,-6.17 -13.751,-24.533 -22.111,-35.937c-4.076,-5.559 -7.952,-9.457 -10.415,-10.391c-1.124,-0.427 -2.701,-0.589 -4.619,-0.347c-2.05,0.258 -4.641,0.966 -7.457,1.959c-10.135,3.574 -23.497,10.864 -23.497,10.864l-2.984,1.63l3.26,5.968l2.984,-1.63c-0,-0 12.791,-6.996 22.498,-10.419c1.938,-0.683 3.741,-1.222 5.269,-1.503c0.907,-0.167 1.643,-0.351 2.133,-0.165c0.544,0.206 1.142,0.762 1.87,1.467c1.614,1.565 3.479,3.867 5.474,6.588c8.086,11.03 18.039,28.714 21.517,34.979Z" style="fill:#8b8f9f;"/><path d="M377.029,563.613c10.685,-2.286 30.194,-5.715 44.155,-4.446c0.443,22.806 -2.298,44.835 -7.468,63.806c-16.358,0.534 -29.933,-3.886 -41.34,-7.202l-3.265,-0.949l-1.898,6.53l3.265,0.949c12.59,3.659 27.707,8.481 46.061,7.345l2.396,-0.148l0.662,-2.307c5.998,-20.901 9.109,-45.617 8.31,-71.16l-0.089,-2.839l-2.81,-0.417c-14.753,-2.193 -37.388,1.618 -49.401,4.188l-3.325,0.712l1.422,6.649l3.325,-0.711Z" style="fill:#8b8f9f;"/><circle cx="401.651" cy="604.166" r="7.89" style="fill:none;stroke:#8b8f9f;stroke-width:6.8px;"/><circle cx="429.23" cy="524.348" r="7.89" style="fill:none;stroke:#8b8f9f;stroke-width:6.8px;"/><path d="M451.291,365.499c-0.378,-1.848 -2.185,-3.041 -4.032,-2.664l-6.696,1.368c-1.848,0.378 -3.042,2.185 -2.664,4.032l1.368,6.696c0.378,1.848 2.184,3.042 4.032,2.664l6.696,-1.368c1.848,-0.378 3.041,-2.184 2.664,-4.032l-1.368,-6.696Z" style="fill:none;stroke:#8b8f9f;stroke-width:6.8px;"/><path d="M294.747,541.63c8.612,-17.302 18.689,-33.917 28.152,-46.692l2.024,-2.732l-5.464,-4.048l-2.024,2.732c-9.67,13.055 -19.976,30.029 -28.775,47.71l-1.515,3.044l6.087,3.029l1.515,-3.043Z" style="fill:#8b8f9f;"/><path d="M326.788,492.821c-2.106,6.818 -5.234,37.773 -3.006,52.326l0.514,3.361l6.722,-1.029l-0.515,-3.361c-2.117,-13.828 0.831,-43.422 2.809,-49.377c0.252,-0.76 0.372,-1.86 0.194,-3.242c-0.245,-1.908 -1.087,-4.716 -2.286,-7.893c-3.667,-9.722 -10.646,-23.305 -10.646,-23.305l-1.555,-3.023l-6.048,3.109l1.555,3.024c0,-0 6.776,13.168 10.332,22.595c1.078,2.859 1.845,6.411 1.93,6.815Z" style="fill:#8b8f9f;"/><path d="M249.056,537.265c7.656,5.612 13.345,7.63 21.233,8.418l3.383,0.337l0.676,-6.766l-3.383,-0.338c-6.651,-0.664 -11.433,-2.403 -17.889,-7.135l-2.742,-2.01l-4.02,5.484l2.742,2.01Z" style="fill:#8b8f9f;"/><path d="M228.976,615.398c44.799,8.006 90.406,9.375 134.255,5.679l2.318,-0.195l0.657,-2.231c6.011,-20.378 6.986,-39.668 4.905,-58.302l-0.279,-2.5l-2.472,-0.464c-28.065,-5.269 -55.228,-8.423 -81.699,-9.954c-4.585,-8.65 -6.846,-18.875 -7.452,-30.251l-0.181,-3.396l-6.79,0.362l0.181,3.395c0.705,13.244 3.556,25.037 9.231,34.878l0.92,1.595l1.838,0.101c25.996,1.43 52.663,4.434 80.205,9.491c1.563,16.316 0.62,33.175 -4.29,50.887c-42.553,3.404 -86.736,1.969 -130.15,-5.789l-3.347,-0.598l-1.197,6.694l3.347,0.598Z" style="fill:#8b8f9f;"/><path d="M219.396,605.495c-9.796,-4.215 -16.945,-14.575 -20.734,-23.84c-2.379,-5.819 -3.536,-11.176 -2.75,-14.188c3.74,-14.345 43.585,-71.938 43.585,-71.938l0.279,-0.405l0.153,-0.468c-0,0 13.643,-41.765 30.378,-73.309c6.95,-13.101 14.359,-24.449 21.603,-29.946c11.822,-8.973 23.812,-8.667 35.292,-7.609c8.436,0.778 16.64,1.953 24.409,0.928c8.036,-1.06 15.751,-7 23.416,-12.639c6.456,-4.75 12.822,-9.395 19.752,-8.678l3.382,0.35l0.7,-6.764l-3.382,-0.35c-8.49,-0.879 -16.573,4.146 -24.481,9.964c-6.698,4.927 -13.255,10.449 -20.277,11.375c-9.222,1.217 -19.085,-0.951 -29.222,-1.412c-11.077,-0.505 -22.433,0.867 -33.7,9.418c-7.816,5.932 -15.999,18.04 -23.499,32.176c-15.939,30.043 -29.122,69.22 -30.681,73.917c-3.58,5.238 -40.629,59.645 -44.287,73.675c-1.018,3.902 -0.047,10.938 3.036,18.477c4.405,10.771 12.951,22.612 24.34,27.513l3.123,1.344l2.688,-6.247l-3.123,-1.344Z" style="fill:#8b8f9f;"/><path d="M435.988,399.205l15.407,31.567l2.59,-0.539c20.78,-4.332 35.39,-28.135 38.517,-50.099l0.198,-1.385l-0.835,-1.123c-6.811,-9.161 -19.446,-16.326 -27.064,-17.18l-3.379,-0.379l-0.758,6.758l3.379,0.379c6.025,0.675 15.708,6.281 21.509,13.383c-2.973,17.971 -14.032,37.316 -30.42,42.337c-0,0 -11.542,-23.646 -11.542,-23.646l-1.491,-3.055l-6.111,2.982Z" style="fill:#8b8f9f;"/><path d="M434.855,428.935l5.148,-25.439c17.796,-7.627 24.056,-19.001 27.767,-31.205l0.211,-0.694l-0.091,-0.72c-1.238,-9.829 -1.957,-18.479 1.39,-26.625l1.292,-3.145l-6.29,-2.584l-1.292,3.145c-3.697,8.999 -3.267,18.528 -1.937,29.329c-3.34,10.619 -9.108,20.442 -25.282,26.891l-1.709,0.681l-5.872,29.017l6.665,1.349Z" style="fill:#8b8f9f;"/><path d="M392.728,359.996c-8.572,4.182 -16.518,8.963 -23.184,21.667l-0.477,0.908l0.105,1.02c1.993,19.354 11.69,38.66 32.26,46.174l2.751,1.006l16.865,-30.967l-5.972,-3.253l-14.012,25.729c-15.72,-7.062 -23.159,-22.691 -25.014,-38.36c5.678,-10.332 12.438,-14.29 19.659,-17.812l3.056,-1.49l-2.981,-6.112l-3.056,1.49Z" style="fill:#8b8f9f;"/><path d="M390.39,343.595c4.003,10.442 3.036,18.975 2.794,26.967c-5.312,12.158 0.104,24.568 22.114,32.691c-0.001,-0 4.446,22.478 4.446,22.478l0.659,3.335l6.671,-1.319l-5.86,-29.627l-1.851,-0.637c-18.286,-6.288 -24.268,-15.009 -19.721,-24.7l0.303,-0.647l0.018,-0.714c0.22,-8.968 1.286,-18.498 -3.224,-30.261l-1.217,-3.174l-6.349,2.434l1.217,3.174Z" style="fill:#8b8f9f;"/><path d="M400.705,319.32c3.411,1.761 7.122,3.299 14.535,5.024l3.311,0.771l1.542,-6.624l-3.312,-0.77c-6.602,-1.537 -9.918,-2.874 -12.955,-4.443l-3.021,-1.56l-3.121,6.042l3.021,1.56Z" style="fill:#8b8f9f;"/><path d="M420.798,290.65c1.379,2.028 3.1,3.708 5.317,4.887l3.001,1.597l3.194,-6.003l-3.002,-1.597c-1.214,-0.646 -2.13,-1.595 -2.885,-2.706l-1.911,-2.812l-5.625,3.821l1.911,2.813Z" style="fill:#8b8f9f;"/><path d="M453.343,248.716l-12.342,-1.161l10.022,7.295c21.255,15.472 43.611,18.489 69.924,1.596l7.139,-4.583l-19.675,-3.817c0,-0.001 13.752,-19.032 13.752,-19.032l-13.135,7.139c-17.167,9.329 -34.522,14.555 -55.685,12.563Zm12.432,7.159c12.267,-0.456 23.43,-3.267 34.234,-7.813c0.001,0 -3.345,4.631 -3.345,4.631l12.767,2.477c-15.844,7.77 -30.107,7.26 -43.658,0.705l0.002,-0Z" style="fill:#8b8f9f;"/><path d="M454.684,242.986c6.669,0.26 13.774,0.028 21.261,-1.617l3.321,-0.729l-1.459,-6.642l-3.321,0.73c-6.88,1.51 -13.409,1.702 -19.538,1.463l-3.397,-0.132l-0.264,6.795l3.397,0.132Z" style="fill:#8b8f9f;"/><path d="M353.947,300.945l7.315,-5.232c0,0 4.564,6.512 4.564,6.512l14,-6.997l-3.04,-6.083l-8.756,4.376c0,0 -5.139,-7.332 -5.139,-7.332l-12.9,9.225l3.956,5.531Z" style="fill:#8b8f9f;"/><path d="M327.876,258.887c1.749,26.089 5.557,50.994 11.993,75.196c-18.734,-21.153 -32.46,-52.162 -43.485,-88.532l-0.987,-3.254l-6.507,1.973l0.986,3.254c13.171,43.447 30.322,79.357 54.638,100.823l9.052,7.991l-3.552,-11.541c-8.525,-27.691 -13.332,-56.224 -15.353,-86.365l-0.228,-3.393l-6.785,0.455l0.228,3.393Z" style="fill:#8b8f9f;"/><path d="M501.078,131.672c12.747,36.15 39.842,58.905 76.961,74.514c-12.136,3.069 -22.796,4.769 -31.868,4.971l-3.54,0.079l0.222,3.534c0.568,9.025 -0.697,18.51 -2.417,24.651l-0.918,3.274l6.548,1.834l0.918,-3.273c1.658,-5.921 2.942,-14.687 2.793,-23.441c11.235,-0.656 24.611,-3.289 39.946,-7.774l9.825,-2.873l-9.591,-3.576c-39.948,-14.894 -69.332,-36.933 -82.466,-74.182l-1.131,-3.206l-6.413,2.261l1.131,3.207Z" style="fill:#8b8f9f;"/><path d="M454.279,157.698c8.602,6.043 24.882,11.673 39.152,10.826l3.394,-0.202l-0.403,-6.788l-3.394,0.202c-12.695,0.753 -27.187,-4.226 -34.84,-9.602l-2.782,-1.955l-3.91,5.564l2.783,1.955Z" style="fill:#8b8f9f;"/></g></svg>