<?xml version="1.0" encoding="UTF-8" standalone="no"?><!DOCTYPE svg PUBLIC "-//W3C//DTD SVG 1.1//EN" "http://www.w3.org/Graphics/SVG/1.1/DTD/svg11.dtd"><svg width="100%" height="100%" viewBox="0 0 24 24" version="1.1" xmlns="http://www.w3.org/2000/svg" xmlns:xlink="http://www.w3.org/1999/xlink" xml:space="preserve" xmlns:serif="http://www.serif.com/" style="fill-rule:evenodd;clip-rule:evenodd;stroke-linejoin:round;stroke-miterlimit:2;"><g transform="matrix(0.823553,0,0,1.2,4.70558,-0.3)"><path d="M14.321,12.125C14.321,11.78 13.913,11.5 13.411,11.5C12.908,11.5 12.5,11.78 12.5,12.125L12.5,13.375C12.5,13.72 12.908,14 13.411,14C13.913,14 14.321,13.72 14.321,13.375L14.321,12.125Z"/></g><path d="M15.75,6L8.25,6C7.836,6 7.5,6.336 7.5,6.75L7.5,6.75L7.5,11.25C7.5,11.664 7.836,12 8.25,12C8.25,12 15.75,12 15.75,12C16.164,12 16.5,11.664 16.5,11.25L16.5,6.75C16.5,6.75 16.5,6.75 16.5,6.75C16.5,6.336 16.164,6 15.75,6ZM9,7.5L9,10.5L15,10.5L15,7.5L9,7.5Z"/><path d="M19.25,2.5L4.75,2.5C4.336,2.5 4,2.836 4,3.25L4,20.75C4,21.164 4.336,21.5 4.75,21.5L19.25,21.5L19.25,21.5C19.664,21.5 20,21.164 20,20.75L20,3.25C20,2.836 19.664,2.5 19.25,2.5ZM18.5,4L5.5,4L5.5,20L18.5,20L18.5,4Z"/></svg>