<?xml version="1.0" encoding="UTF-8" standalone="no"?>
<!DOCTYPE svg PUBLIC "-//W3C//DTD SVG 1.1//EN" "http://www.w3.org/Graphics/SVG/1.1/DTD/svg11.dtd">
<svg width="100%" height="100%" viewBox="0 0 24 24" version="1.1" xmlns="http://www.w3.org/2000/svg" xmlns:xlink="http://www.w3.org/1999/xlink" xml:space="preserve" xmlns:serif="http://www.serif.com/" style="fill-rule:evenodd;clip-rule:evenodd;stroke-linejoin:round;stroke-miterlimit:2;">
    <path d="M8,4L8,12.086C8,12.086 5.793,14.293 5.793,14.293C5.507,14.579 5.421,15.009 5.576,15.383C5.731,15.756 6.096,16 6.5,16L11,16L11,21C11,21.552 11.448,22 12,22C12.552,22 13,21.552 13,21L13,16L17.5,16C17.904,16 18.269,15.756 18.424,15.383C18.579,15.009 18.493,14.579 18.207,14.293L16,12.086L16,4L17,4C17.552,4 18,3.552 18,3C18,2.448 17.552,2 17,2L7,2C6.448,2 6,2.448 6,3C6,3.552 6.448,4 7,4L8,4ZM14,4L10,4L10,12.5C10,12.765 9.895,13.02 9.707,13.207C9.707,13.207 8.914,14 8.914,14L12,14C12,14 15.086,14 15.086,14L14.293,13.207C14.105,13.02 14,12.765 14,12.5L14,4Z"/>
</svg>
