<?xml version="1.0" encoding="UTF-8" standalone="no"?>
<!DOCTYPE svg PUBLIC "-//W3C//DTD SVG 1.1//EN" "http://www.w3.org/Graphics/SVG/1.1/DTD/svg11.dtd">
<svg width="100%" height="100%" viewBox="0 0 24 24" version="1.1" xmlns="http://www.w3.org/2000/svg" xmlns:xlink="http://www.w3.org/1999/xlink" xml:space="preserve" xmlns:serif="http://www.serif.com/" style="fill-rule:evenodd;clip-rule:evenodd;stroke-linejoin:round;stroke-miterlimit:2;">
    <path d="M5.336,14.5L8.629,14.5C9.014,15.567 9.291,16.338 9.291,16.338C9.478,16.857 10.051,17.128 10.57,16.941C11.09,16.755 11.36,16.181 11.173,15.662C11.173,15.662 8.803,9.063 8.259,7.724C8.174,7.516 8.023,7.325 7.791,7.189C7.605,7.081 7.284,7.026 7.101,7.008C7.072,7.004 7.022,7 6.982,7C6.942,7 6.863,7.008 6.863,7.008C6.68,7.026 6.36,7.081 6.174,7.189C5.941,7.325 5.79,7.516 5.706,7.724C5.161,9.063 2.791,15.662 2.791,15.662C2.604,16.181 2.875,16.755 3.394,16.941C3.914,17.128 4.487,16.857 4.673,16.338C4.673,16.338 4.95,15.567 5.336,14.5ZM20.268,15L16.268,15C16.268,15 21.068,8.6 21.068,8.6C21.295,8.297 21.332,7.892 21.162,7.553C20.993,7.214 20.647,7 20.268,7L14.268,7C13.716,7 13.268,7.448 13.268,8C13.268,8.552 13.716,9 14.268,9L18.268,9C18.268,9 13.468,15.4 13.468,15.4C13.241,15.703 13.204,16.108 13.374,16.447C13.543,16.786 13.889,17 14.268,17L20.268,17C20.82,17 21.268,16.552 21.268,16C21.268,15.448 20.82,15 20.268,15ZM7.903,12.5C7.638,11.772 7.368,11.034 7.127,10.382C7.078,10.248 6.887,10.248 6.837,10.382C6.596,11.034 6.326,11.772 6.061,12.5L7.903,12.5Z"/>
</svg>
