<?xml version="1.0" encoding="UTF-8" standalone="no"?>
<!DOCTYPE svg PUBLIC "-//W3C//DTD SVG 1.1//EN" "http://www.w3.org/Graphics/SVG/1.1/DTD/svg11.dtd">
<svg width="100%" height="100%" viewBox="0 0 24 24" version="1.1" xmlns="http://www.w3.org/2000/svg" xmlns:xlink="http://www.w3.org/1999/xlink" xml:space="preserve" xmlns:serif="http://www.serif.com/" style="fill-rule:evenodd;clip-rule:evenodd;stroke-linejoin:round;stroke-miterlimit:2;">
    <path d="M15.353,14.5L18.646,14.5C19.032,15.567 19.309,16.338 19.309,16.338C19.495,16.857 20.068,17.128 20.588,16.941C21.107,16.755 21.378,16.181 21.191,15.662C21.191,15.662 18.821,9.063 18.276,7.724C18.192,7.516 18.041,7.325 17.808,7.189C17.622,7.081 17.302,7.026 17.119,7.008C17.09,7.004 17.04,7 17,7C16.96,7 16.881,7.008 16.881,7.008C16.698,7.026 16.377,7.081 16.191,7.189C15.959,7.325 15.808,7.516 15.723,7.724C15.179,9.063 12.809,15.662 12.809,15.662C12.622,16.181 12.892,16.755 13.412,16.941C13.931,17.128 14.504,16.857 14.691,16.338C14.691,16.338 14.968,15.567 15.353,14.5ZM9.75,15L5.75,15C5.75,15 10.55,8.6 10.55,8.6C10.777,8.297 10.814,7.892 10.644,7.553C10.475,7.214 10.129,7 9.75,7L3.75,7C3.198,7 2.75,7.448 2.75,8C2.75,8.552 3.198,9 3.75,9L7.75,9C7.75,9 2.95,15.4 2.95,15.4C2.723,15.703 2.686,16.108 2.856,16.447C3.025,16.786 3.371,17 3.75,17L9.75,17C10.302,17 10.75,16.552 10.75,16C10.75,15.448 10.302,15 9.75,15ZM17.921,12.5C17.656,11.772 17.386,11.034 17.145,10.382C17.095,10.248 16.904,10.248 16.855,10.382C16.614,11.034 16.344,11.772 16.079,12.5L17.921,12.5Z"/>
</svg>
