<?xml version="1.0" encoding="UTF-8" standalone="no"?>
<!DOCTYPE svg PUBLIC "-//W3C//DTD SVG 1.1//EN" "http://www.w3.org/Graphics/SVG/1.1/DTD/svg11.dtd">
<svg width="100%" height="100%" viewBox="0 0 24 24" version="1.1" xmlns="http://www.w3.org/2000/svg" xmlns:xlink="http://www.w3.org/1999/xlink" xml:space="preserve" xmlns:serif="http://www.serif.com/" style="fill-rule:evenodd;clip-rule:evenodd;stroke-linejoin:round;stroke-miterlimit:2;">
    <path d="M8.761,7L5.5,7C4.948,7 4.5,7.448 4.5,8C4.5,8.552 4.948,9 5.5,9L8.244,9L6.691,15L4,15C3.448,15 3,15.448 3,16C3,16.552 3.448,17 4,17L6.173,17L5.203,20.749C5.064,21.284 5.386,21.83 5.92,21.968C6.454,22.106 7,21.785 7.139,21.251L8.239,17L13.173,17L12.203,20.749C12.064,21.284 12.386,21.83 12.92,21.968C13.454,22.106 14,21.785 14.139,21.251L15.239,17L18.5,17C19.052,17 19.5,16.552 19.5,16C19.5,15.448 19.052,15 18.5,15L15.756,15L17.309,9L20,9C20.552,9 21,8.552 21,8C21,7.448 20.552,7 20,7L17.827,7L18.797,3.251C18.936,2.716 18.614,2.17 18.08,2.032C17.546,1.894 17,2.215 16.861,2.749L15.761,7L10.827,7L11.797,3.251C11.936,2.716 11.614,2.17 11.08,2.032C10.546,1.894 10,2.215 9.861,2.749L8.761,7ZM15.244,9L10.309,9L8.756,15L13.691,15L15.244,9Z"/>
</svg>
