<?xml version="1.0" encoding="UTF-8" standalone="no"?>
<!DOCTYPE svg PUBLIC "-//W3C//DTD SVG 1.1//EN" "http://www.w3.org/Graphics/SVG/1.1/DTD/svg11.dtd">
<svg width="100%" height="100%" viewBox="0 0 800 800" version="1.1" xmlns="http://www.w3.org/2000/svg" xmlns:xlink="http://www.w3.org/1999/xlink" xml:space="preserve" xmlns:serif="http://www.serif.com/" style="fill-rule:evenodd;clip-rule:evenodd;stroke-linejoin:round;stroke-miterlimit:2;">
    <g transform="matrix(1,0,0,1,29.9957,-29.9957)">
        <path d="M276.502,480.157c-95.183,-83.549 -165.356,-185.064 -216.521,-300.178c46.342,-10.484 88.726,-7.612 133.21,12.795c17.869,-38.136 53.519,-76.514 106.806,-92.802c-25.758,119.741 -28.673,239.743 -7.81,360.03c2.812,14.995 4.814,27.005 12.813,34.998c8.002,7.995 20,10.005 34.998,12.813c120.287,20.863 240.289,17.948 360.03,-7.81c-16.288,53.287 -54.666,88.937 -92.802,106.806c20.407,44.484 23.279,86.868 12.795,133.21c-115.114,-51.165 -216.629,-121.338 -300.178,-216.521l-0.49,-0.559c-6.739,-7.389 -14.601,-3.882 -13.245,6.474c-0,0 0.233,1.4 0.232,1.406c5.891,36 10.304,93.924 -15.61,119.837c-39.026,39.027 -102.395,39.027 -141.421,0c-39.026,-39.026 -39.026,-102.395 -0,-141.421c25.874,-25.874 83.678,-21.499 119.694,-15.612l-0.003,-0l0.003,0c0.591,0.097 1.177,0.194 1.758,0.291c10.221,1.245 13.646,-6.565 6.3,-13.267l-0.558,-0.489l-0.003,-0.003l0.002,0.002Z" style="fill:rgb(139,143,159);"/>
    </g>
</svg>
