<?xml version="1.0" encoding="UTF-8" standalone="no"?>
<!DOCTYPE svg PUBLIC "-//W3C//DTD SVG 1.1//EN" "http://www.w3.org/Graphics/SVG/1.1/DTD/svg11.dtd">
<svg width="100%" height="100%" viewBox="0 0 520 170" version="1.1" xmlns="http://www.w3.org/2000/svg" xmlns:xlink="http://www.w3.org/1999/xlink" xml:space="preserve" xmlns:serif="http://www.serif.com/" style="fill-rule:evenodd;clip-rule:evenodd;stroke-linejoin:round;stroke-miterlimit:2;">
    <g transform="matrix(1,0,0,1,-344.661,-561.164)">
        <g transform="matrix(1,0,0,1,1.82406,-1.62256)">
            <path d="M741.502,645.613C760.08,654.794 784.717,669.19 804.831,687.202L813.771,695.207L829.781,677.328L820.842,669.323C799.004,649.768 772.305,634.065 752.135,624.097L741.377,618.781L730.744,640.297L741.502,645.613Z" style="fill:#8b8f9f;"/>
            <path d="M796.558,602.841C780.555,648.808 760.837,672.36 729.98,681.745L718.499,685.237L725.483,708.199L736.964,704.707C774.292,693.353 799.864,666.339 819.224,610.732L823.169,599.399L800.503,591.508L796.558,602.841Z" style="fill:#8b8f9f;"/>
        </g>
        <g>
            <path d="M608.883,593.132L608.581,651.088L632.581,651.213L632.883,593.257L608.883,593.132Z" style="fill:#8b8f9f;"/>
            <path d="M668.276,592.529L667.939,639.576C667.427,664.75 654.947,677.183 641.382,681.913L630.051,685.864L637.954,708.526L649.285,704.575C670.289,697.25 691.177,678.992 691.936,639.975C691.937,639.925 691.937,639.876 691.938,639.827L692.275,592.701L668.276,592.529Z" style="fill:#8b8f9f;"/>
        </g>
        <g>
            <path d="M500.753,591.669L501.133,705.618L525.133,705.538L524.753,591.589L500.753,591.669Z" style="fill:#8b8f9f;"/>
            <path d="M523.06,659.289C533.165,660.48 544.602,662.226 560.239,666.056L571.895,668.91L577.604,645.599L565.948,642.744C549.091,638.616 536.762,636.738 525.869,635.454L513.952,634.049L511.143,657.884L523.06,659.289Z" style="fill:#8b8f9f;"/>
        </g>
        <g transform="matrix(1,0,0,1,0,2.39491)">
            <g transform="matrix(1,0,0,1,-8.05273,-0.848884)">
                <path d="M402.21,611.576C418.678,612.961 432.364,614.442 449.002,619.376L460.507,622.788L467.33,599.778L455.826,596.366C437.471,590.923 422.39,589.189 404.222,587.66L392.265,586.654L390.252,610.569L402.21,611.576Z" style="fill:#8b8f9f;"/>
            </g>
            <g transform="matrix(1,0,0,1,-13.3751,-0.83804)">
                <path d="M393.686,692.193C406.905,692.303 435.719,696.078 449.591,700.893L460.927,704.828L468.797,682.155L457.461,678.22C441.681,672.743 408.924,668.319 393.886,668.194L381.887,668.094L381.686,692.093L393.686,692.193Z" style="fill:#8b8f9f;"/>
            </g>
            <g transform="matrix(1,0,0,1,-12.2696,-1.0766)">
                <path d="M403.16,651.958C412.246,652.361 429.975,654.435 445.14,658.66L456.7,661.88L463.141,638.76L451.581,635.54C434.473,630.774 414.473,628.436 404.223,627.981L392.235,627.45L391.172,651.427L403.16,651.958Z" style="fill:#8b8f9f;"/>
            </g>
        </g>
    </g>
</svg>
